<?xml version="1.0" encoding="UTF-8"?>
<!DOCTYPE svg PUBLIC "-//W3C//DTD SVG 1.1//EN" "http://www.w3.org/Graphics/SVG/1.1/DTD/svg11.dtd">
<!-- Creator: CorelDRAW -->
<svg xmlns="http://www.w3.org/2000/svg" xml:space="preserve" width="2048px" height="2048px" style="shape-rendering:geometricPrecision; text-rendering:geometricPrecision; image-rendering:optimizeQuality; fill-rule:evenodd; clip-rule:evenodd"
viewBox="0 0 2048 2048"
 xmlns:xlink="http://www.w3.org/1999/xlink">
 <defs>
  <style type="text/css">
   <![CDATA[
    .fil2 {fill:none}
    .fil5 {fill:#356278}
    .fil1 {fill:#D81B60}
    .fil0 {fill:#F06292}
    .fil6 {fill:#3A7189;fill-rule:nonzero}
    .fil7 {fill:#4087A0;fill-rule:nonzero}
    .fil4 {fill:#ED8803;fill-rule:nonzero}
    .fil3 {fill:#FFA000;fill-rule:nonzero}
   ]]>
  </style>
   <clipPath id="id0">
    <path d="M1024 0c565.538,0 1024,458.462 1024,1024 0,565.538 -458.462,1024 -1024,1024 -565.538,0 -1024,-458.462 -1024,-1024 0,-565.538 458.462,-1024 1024,-1024z"/>
   </clipPath>
 </defs>
 <g id="Layer_x0020_1">
  <metadata id="CorelCorpID_0Corel-Layer"/>
  <path class="fil0" d="M1024 0c565.538,0 1024,458.462 1024,1024 0,565.538 -458.462,1024 -1024,1024 -565.538,0 -1024,-458.462 -1024,-1024 0,-565.538 458.462,-1024 1024,-1024z"/>
  <g style="clip-path:url(#id0)">
   <g id="_385685464">
    <g>
     <polygon id="_2345980641" class="fil1" points="787.792,474.221 1923.67,1610.1 1925.03,1611.58 1926.26,1613.17 1927.34,1614.88 1928.27,1616.69 1929.03,1618.61 1929.62,1620.61 793.739,484.73 793.15,482.724 792.386,480.811 791.457,478.995 790.375,477.286 789.151,475.693 "/>
     <polygon id="_234598088" class="fil1" points="793.779,484.585 1929.66,1620.47 1929.77,1620.91 1929.88,1621.35 1929.97,1621.8 1930.06,1622.25 1930.14,1622.71 1930.21,1623.17 1930.27,1623.63 1930.32,1624.09 794.435,488.209 794.384,487.744 794.325,487.283 794.255,486.825 794.177,486.369 794.091,485.918 793.995,485.47 793.892,485.026 "/>
     <polygon id="_234599312" class="fil1" points="794.435,488.209 1930.32,1624.09 1930.29,1624.1 794.414,488.218 "/>
     <polygon id="_234599288" class="fil1" points="794.414,488.218 1930.29,1624.1 1930.4,1625.04 1930.5,1625.98 1930.6,1626.91 1930.71,1627.85 1930.81,1628.79 1930.91,1629.72 1931.01,1630.65 1931.11,1631.59 795.229,495.705 795.128,494.772 795.028,493.838 794.927,492.903 794.826,491.967 794.723,491.031 794.62,490.094 794.518,489.156 "/>
     <polygon id="_234599096" class="fil1" points="795.229,495.705 1931.11,1631.59 1931.37,1633.75 1931.63,1635.91 1931.88,1638.08 1932.12,1640.24 1932.36,1642.4 1932.59,1644.57 1932.81,1646.73 1933.03,1648.9 1933.24,1651.06 1933.45,1653.23 1933.65,1655.39 1933.84,1657.56 1934.03,1659.72 1934.21,1661.89 1934.38,1664.05 1934.55,1666.22 1934.71,1668.39 1934.86,1670.55 1935.01,1672.72 1935.15,1674.89 1935.29,1677.06 1935.42,1679.22 1935.54,1681.39 1935.66,1683.56 1935.77,1685.73 1935.87,1687.9 1935.97,1690.07 1936.06,1692.24 1936.15,1694.41 1936.23,1696.58 1936.3,1698.75 1936.37,1700.92 800.484,565.036 800.417,562.865 800.344,560.696 800.265,558.525 800.18,556.355 800.088,554.185 799.99,552.017 799.886,549.847 799.775,547.679 799.658,545.51 799.535,543.342 799.405,541.174 799.27,539.006 799.127,536.839 798.98,534.671 798.825,532.504 798.664,530.338 798.498,528.172 798.324,526.006 798.145,523.839 797.958,521.673 797.766,519.508 797.567,517.343 797.362,515.178 797.15,513.013 796.933,510.848 796.708,508.685 796.478,506.521 796.241,504.357 795.997,502.194 795.747,500.031 795.491,497.868 "/>
     <polygon id="_234599336" class="fil1" points="800.484,565.036 1936.37,1700.92 1936.42,1702.47 1936.47,1704.01 1936.52,1705.56 1936.56,1707.11 1936.6,1708.66 1936.64,1710.21 1936.67,1711.75 1936.7,1713.3 1936.72,1714.85 1936.74,1716.4 1936.76,1717.95 1936.78,1719.5 1936.79,1721.05 1936.79,1722.6 1936.8,1724.16 1936.8,1725.71 1936.79,1727.26 1936.78,1728.82 1936.77,1730.37 1936.75,1731.93 1936.73,1733.48 1936.71,1735.04 1936.68,1736.6 1936.64,1738.16 1936.6,1739.72 1936.56,1741.28 1936.52,1742.84 1936.46,1744.41 1936.41,1745.97 1936.35,1747.54 1936.29,1749.11 1936.22,1750.67 800.337,614.793 800.405,613.224 800.469,611.656 800.529,610.089 800.584,608.524 800.634,606.961 800.682,605.398 800.723,603.837 800.761,602.276 800.795,600.716 800.825,599.158 800.849,597.6 800.871,596.044 800.888,594.488 800.901,592.934 800.91,591.38 800.916,589.826 800.917,588.273 800.913,586.721 800.907,585.171 800.897,583.62 800.883,582.069 800.864,580.519 800.842,578.97 800.816,577.42 800.788,575.872 800.755,574.323 800.718,572.775 800.678,571.228 800.636,569.679 800.588,568.132 800.538,566.584 "/>
     <polygon id="_234599504" class="fil1" points="800.337,614.793 1936.22,1750.67 1936.18,1751.78 1936.14,1752.88 1936.1,1753.98 1936.05,1755.08 1936.01,1756.18 1935.96,1757.28 1935.91,1758.39 1935.86,1759.49 1935.81,1760.59 1935.75,1761.69 1935.7,1762.79 1935.64,1763.9 1935.59,1765 1935.53,1766.1 1935.47,1767.2 1935.4,1768.3 799.522,632.422 799.584,631.32 799.645,630.218 799.705,629.116 799.762,628.013 799.818,626.911 799.873,625.809 799.926,624.707 799.978,623.605 800.029,622.504 800.077,621.402 800.124,620.3 800.169,619.198 800.214,618.097 800.257,616.995 800.298,615.893 "/>
     <polygon id="_234599120" class="fil1" points="799.522,632.422 1935.4,1768.3 1935.18,1771.96 1934.95,1775.62 1934.7,1779.27 1934.43,1782.93 1934.15,1786.59 1933.85,1790.25 1933.53,1793.91 1933.19,1797.57 1932.84,1801.23 1932.47,1804.89 1932.09,1808.55 1931.69,1812.22 1931.27,1815.88 1930.84,1819.54 1930.39,1823.21 1929.93,1826.87 1929.44,1830.54 1928.95,1834.2 1928.43,1837.87 1927.9,1841.53 1927.36,1845.2 1926.79,1848.87 1926.22,1852.54 1925.62,1856.21 1925.01,1859.88 1924.38,1863.55 1923.74,1867.22 1923.08,1870.89 1922.41,1874.56 1921.72,1878.23 1921.01,1881.9 1920.29,1885.58 784.412,749.696 785.134,746.023 785.839,742.351 786.529,738.679 787.203,735.006 787.861,731.336 788.503,727.665 789.129,723.995 789.74,720.325 790.334,716.657 790.913,712.988 791.475,709.32 792.021,705.653 792.551,701.986 793.066,698.32 793.563,694.654 794.045,690.989 794.51,687.324 794.959,683.66 795.393,679.997 795.81,676.334 796.209,672.671 796.593,669.01 796.96,665.349 797.311,661.687 797.646,658.027 797.964,654.368 798.265,650.709 798.55,647.05 798.818,643.392 799.07,639.735 799.303,636.078 "/>
     <polygon id="_234599528" class="fil1" points="1578.66,758.212 2714.54,1894.09 2715.88,1895.9 2717.06,1897.83 2718.04,1899.87 2718.83,1902.02 2719.41,1904.26 2719.76,1906.59 2719.88,1908.98 1584,773.096 1583.88,770.703 1583.52,768.38 1582.95,766.138 1582.16,763.988 1581.18,761.943 1580,760.013 "/>
     <polygon id="_234598976" class="fil1" points="1584,773.096 2719.88,1908.98 2719.88,2410.79 1584,1274.9 "/>
     <polygon id="_234599048" class="fil1" points="1584,1274.9 2719.88,2410.79 2719.76,2413.18 2719.41,2415.5 2718.83,2417.74 2718.04,2419.89 2717.06,2421.94 2715.88,2423.87 2714.54,2425.67 2713.03,2427.33 2711.37,2428.84 2709.56,2430.19 2707.64,2431.36 2705.59,2432.35 2703.44,2433.13 2701.2,2433.71 2698.87,2434.07 2696.48,2434.19 1560.6,1298.3 1562.99,1298.18 1565.32,1297.83 1567.56,1297.25 1569.71,1296.47 1571.75,1295.48 1573.68,1294.31 1575.48,1292.96 1577.15,1291.45 1578.66,1289.79 1580,1287.99 1581.18,1286.06 1582.16,1284.01 1582.95,1281.86 1583.52,1279.62 1583.88,1277.3 "/>
     <polygon id="_234600272" class="fil1" points="681.401,795.655 1817.28,1931.54 1815.78,1931.77 679.901,795.883 "/>
     <polygon id="_234599816" class="fil1" points="678.686,1249.86 1814.57,2385.74 1813.44,2385.09 1812.33,2384.39 1811.25,2383.64 1810.2,2382.83 1809.17,2381.96 673.288,1246.07 674.319,1246.95 675.374,1247.76 676.452,1248.51 677.555,1249.21 "/>
     <polygon id="_234599768" class="fil1" points="798.073,1415.58 1933.95,2551.46 1934.19,2555.96 1934.4,2560.46 1934.59,2564.96 1934.76,2569.45 1934.91,2573.95 1935.03,2578.44 1935.13,2582.93 1935.2,2587.42 1935.26,2591.91 1935.29,2596.4 1935.3,2600.88 1935.28,2605.36 1935.25,2609.85 1935.19,2614.33 1935.11,2618.8 1935,2623.28 1934.87,2627.76 1934.72,2632.23 1934.55,2636.7 1934.36,2641.17 1934.14,2645.64 1933.9,2650.11 1933.63,2654.58 1933.35,2659.04 1933.04,2663.5 1932.71,2667.96 1932.36,2672.42 1931.98,2676.88 1931.58,2681.34 1931.16,2685.79 1930.71,2690.24 1930.25,2694.69 794.366,1558.81 794.833,1554.36 795.277,1549.91 795.699,1545.45 796.098,1541 796.475,1536.54 796.828,1532.08 797.16,1527.62 797.468,1523.16 797.754,1518.69 798.017,1514.23 798.257,1509.76 798.475,1505.29 798.67,1500.82 798.843,1496.35 798.993,1491.88 799.12,1487.4 799.225,1482.92 799.307,1478.44 799.366,1473.96 799.404,1469.48 799.417,1465 799.408,1460.51 799.377,1456.03 799.323,1451.54 799.247,1447.05 799.146,1442.56 799.025,1438.07 798.879,1433.57 798.712,1429.07 798.521,1424.58 798.309,1420.08 "/>
     <polygon id="_234600296" class="fil1" points="794.366,1558.81 1930.25,2694.69 1930.2,2695.57 1930.11,2696.44 1929.99,2697.32 1929.83,2698.19 1929.64,2699.07 1929.41,2699.94 1929.14,2700.81 1928.84,2701.67 792.96,1565.79 793.263,1564.92 793.53,1564.05 793.759,1563.18 793.953,1562.31 794.109,1561.44 794.231,1560.56 794.316,1559.68 "/>
     <polygon id="_234600152" class="fil1" points="792.96,1565.79 1928.84,2701.67 1928.8,2701.78 1928.76,2701.88 1928.72,2701.99 1928.68,2702.1 1928.63,2702.2 1928.59,2702.31 1928.55,2702.42 1928.5,2702.52 792.621,1566.64 792.664,1566.54 792.708,1566.43 792.752,1566.32 792.794,1566.22 792.837,1566.11 792.878,1566 792.92,1565.89 "/>
     <polygon id="_234599888" class="fil1" points="715.074,1558.62 1850.96,2694.51 1828.52,2687.29 692.638,1551.41 "/>
     <polygon id="_234600176" class="fil1" points="764.336,1578.73 1900.22,2714.61 1851.02,2696.16 715.138,1560.28 "/>
     <polygon id="_234600440" class="fil1" points="792.621,1566.64 1928.5,2702.52 1927.55,2704.51 1926.42,2706.36 1925.14,2708.07 1923.71,2709.63 1922.15,2711.04 1920.47,2712.29 1918.69,2713.37 1916.82,2714.29 1914.87,2715.02 1912.86,2715.57 1910.8,2715.94 1908.7,2716.1 1906.57,2716.07 1904.44,2715.83 1902.3,2715.37 1900.19,2714.69 764.306,1578.81 766.423,1579.49 768.555,1579.94 770.69,1580.19 772.815,1580.22 774.915,1580.06 776.978,1579.69 778.991,1579.14 780.94,1578.41 782.81,1577.49 784.59,1576.41 786.268,1575.16 787.827,1573.75 789.255,1572.19 790.538,1570.48 791.665,1568.63 "/>
     <polygon id="_234599696" class="fil1" points="692.638,1551.41 1828.52,2687.29 1825.61,2686.35 689.724,1550.47 "/>
     <polygon id="_234600056" class="fil1" points="678.201,1249.96 1814.08,2385.84 1813.48,2385.57 677.595,1249.69 "/>
     <polygon id="_234600968" class="fil1" points="784.02,1298.3 1919.9,2434.19 1920.57,2437.86 1921.23,2441.53 1921.87,2445.2 1922.49,2448.87 1923.1,2452.53 1923.7,2456.2 1924.28,2459.87 1924.85,2463.54 1925.4,2467.21 1925.93,2470.87 1926.45,2474.54 1926.96,2478.21 1927.45,2481.87 1927.93,2485.54 1928.39,2489.2 1928.83,2492.87 1929.27,2496.53 1929.68,2500.2 1930.08,2503.86 1930.47,2507.52 1930.84,2511.19 1931.2,2514.85 1931.54,2518.51 1931.87,2522.17 1932.18,2525.84 1932.48,2529.5 1932.76,2533.16 1933.03,2536.82 1933.28,2540.48 1933.52,2544.14 1933.75,2547.8 1933.95,2551.46 798.073,1415.58 797.865,1411.92 797.642,1408.26 797.403,1404.6 797.15,1400.94 796.882,1397.28 796.599,1393.61 796.301,1389.95 795.989,1386.29 795.662,1382.63 795.32,1378.97 794.962,1375.3 794.59,1371.64 794.203,1367.98 793.802,1364.31 793.385,1360.65 792.953,1356.98 792.506,1353.32 792.045,1349.65 791.568,1345.99 791.077,1342.32 790.571,1338.66 790.051,1334.99 789.514,1331.32 788.964,1327.66 788.398,1323.99 787.817,1320.32 787.222,1316.65 786.611,1312.98 785.985,1309.31 785.345,1305.64 784.69,1301.97 "/>
     <polygon id="_234600896" class="fil1" points="1560.6,1298.3 2696.48,2434.19 1919.9,2434.19 784.02,1298.3 "/>
    </g>
    <path id="_385685968" class="fil1" d="M691.418 495.493c1.19646,-0.448819 20.8748,-8.07638 27.6851,-9.26103l43.3796 -16.2697c2.05158,-0.98504 4.28859,-1.67244 6.66497,-1.99252 11.3906,-1.53425 21.9307,5.83583 24.5918,16.7599 0.0141732,-0.0484252 0.0271654,-0.0956694 0.0401575,-0.144095 0.311811,1.16929 0.532678,2.37992 0.655512,3.62362l-0.0212599 0.00944883c0.277559,2.50276 0.549213,4.99843 0.814961,7.48701 2.83583,23.0658 4.57441,46.1764 5.25591,69.3308 0.590552,16.5083 0.607087,33.013 -0.147638,49.7563 -0.206693,5.87363 -0.478347,11.7508 -0.814961,17.6291 -2.23583,38.9965 -7.33229,78.091 -15.1099,117.274l297.681 0 0.595276 0 0.597638 0 477.315 0c12.9236,0 23.4,10.4776 23.4,23.4l0 501.808c0,12.9225 -10.4764,23.4 -23.4,23.4l-776.58 0c7.22835,39.15 11.9091,78.241 14.0528,117.272 2.63622,48.0189 1.3937,95.7662 -3.7063,143.236 -0.0885827,2.32559 -0.54567,4.67717 -1.40669,6.9756 -0.10748,0.288189 -0.220866,0.571654 -0.338977,0.852757 -4.61811,10.9394 -17.0941,16.3772 -28.3146,12.1689l0.0295276 -0.0791339 -49.1977 -18.4524 -0.0637796 -1.65354 -22.4362 -7.21654 -2.91378 -0.936615 -9.66851 -252.167 -1.85433 -48.3461 -0.605906 -0.266929 1.09016 0.165354c-6.09686,-3.3 -11.0445,-8.81812 -15.4335,-17.804 -0.666142,-1.36299 -1.31929,-2.80748 -1.96181,-4.33465 -6.64134,-15.7937 -12.1276,-40.5886 -18.7417,-79.2107 -6.82796,-39.8622 -10.2402,-82.1127 -10.2402,-124.508 0,-42.3981 3.41221,-84.6473 10.2402,-124.51 7.79882,-45.5386 14.0315,-71.8548 22.4339,-86.8572 0.744095,-1.32874 1.50591,-2.5689 2.28662,-3.7252 4.04646,-5.99528 8.62205,-9.75591 14.0858,-12.0449l0.046063 -1.20709 -1.5 0.227953 1.77047 -46.187 9.70276 -253.064 0.0437008 -1.13858z"/>
   </g>
  </g>
  <path class="fil2" d="M1024 0c565.538,0 1024,458.462 1024,1024 0,565.538 -458.462,1024 -1024,1024 -565.538,0 -1024,-458.462 -1024,-1024 0,-565.538 458.462,-1024 1024,-1024z"/>
  <path class="fil3" d="M1560.6 1298.3c12.9236,0 23.4,-10.4764 23.4,-23.3988l0 -501.808c0,-12.9225 -10.4764,-23.3988 -23.4,-23.3988l-477.315 0 -0.597638 0 -0.595276 0 -477.316 0c-12.9225,0 -23.4,10.4764 -23.4,23.3988l0 501.808c0,12.9225 10.4776,23.3988 23.4,23.3988 367.898,0 587.926,0 955.823,0z"/>
  <path class="fil4" d="M1082.69 1057.13l0.36378 -0.239764 450.972 -269.444 -316.335 236.88 319.762 227.084 -362.712 -198.764 -78.9544 52.063 0.0129921 0.0212599c-3.92953,2.65748 -8.37402,3.96024 -12.7854,4.01575l-0.324803 0.00236221 -0.323622 -0.00236221c-4.41142,-0.0555119 -8.85591,-1.35827 -12.7854,-4.01575l0.0141732 -0.0212599 -78.9556 -52.063 -362.712 198.764 319.764 -227.084 -316.335 -236.88 450.972 269.444 0.361418 0.239764z"/>
  <path class="fil5" d="M691.418 495.493c1.45158,-0.544489 30.0803,-11.6445 29.9823,-9.01064l-11.6882 304.865 -29.8122 4.53544 11.5181 -300.39z"/>
  <path class="fil5" d="M677.595 1249.69l28.4315 4.31221 11.7118 305.479 -28.0146 -9.01064 -11.5228 -300.513c-0.20315,-0.0874016 -0.405118,-0.177165 -0.605906,-0.26811z"/>
  <path class="fil6" d="M703.64 793.631c5.47559,0.0354331 11.5654,0.361418 18.4004,0.728741 3.71693,0.199606 7.61339,0.409843 12.8209,0.657875l20.5866 0.981497 -0.00354331 0.0625985c11.4295,0.54567 21.2551,-7.63347 23.0292,-18.6709 11.1579,-48.4607 18.2847,-96.7891 21.0484,-144.969 2.78858,-48.6378 1.10197,-97.095 -5.40591,-145.351l-21.9933 2.95512 22.0547 -2.9752c-1.64291,-12.1795 -12.8492,-20.7225 -25.0299,-19.0807 -2.37638,0.320079 -4.61457,1.00748 -6.66497,1.99252l-47.1414 17.6811c0.00708662,0.35315 0.00354331,0.708662 -0.0106299,1.06654l-11.6906 304.921z"/>
  <path class="fil6" d="M715.138 1560.28l49.1977 18.4524 -0.0295276 0.0791339c11.5087,4.31575 24.3378,-1.51417 28.6536,-13.0217 0.862205,-2.29843 1.31811,-4.65 1.40669,-6.9756 5.10119,-47.4685 6.34252,-95.217 3.7063,-143.236 -2.66929,-48.6083 -9.2752,-97.3111 -19.8343,-146.106l0.0188977 -0.011811c-2.45551,-11.3492 -13.1634,-18.7854 -24.4689,-17.3823l-18.9272 0.903544c-5.20748,0.248032 -9.10394,0.458268 -12.8209,0.656693 -6.9319,0.373229 -13.0973,0.703938 -18.6319,0.731103l11.7295 305.91z"/>
  <path class="fil7" d="M521.273 572.063c-38.1803,153.483 -57.2729,302.74 -57.2729,451.935 0,149.675 19.2142,299.412 57.639,453.416l21.5599 -5.30315 -21.5941 5.38701c2.01142,8.05985 8.1815,13.9866 15.652,16.063l155.398 58.2839 -11.5335 -300.81c-18.2575,-7.82599 -26.5547,-32.3516 -38.5725,-102.527 -6.82678,-39.8622 -10.2402,-82.1127 -10.2402,-124.51 0,-42.3969 3.41339,-84.6461 10.2402,-124.508 12.0697,-70.4753 20.3858,-94.9099 38.8063,-102.627l11.5335 -300.797 -157.427 59.0445 7.73741 20.7768 -7.81536 -20.837c-7.65355,2.8689 -12.7937,9.50434 -14.1106,17.0138z"/>
  <path class="fil5" d="M798.073 1415.58c2.63622,48.0189 1.39488,95.7674 -3.7063,143.236 -0.0885827,2.32559 -0.544489,4.67717 -1.40669,6.9756 -0.10748,0.288189 -0.220866,0.571654 -0.338977,0.852757 -7.4504,-30.4878 -13.5496,-66.7784 -17.511,-106.892 -7.17284,-72.6119 -5.83819,-142.523 2.07756,-193.813 0.445276,1.12559 0.805512,2.30079 1.07008,3.52323l-0.0188977 0.011811c10.5591,48.7949 17.165,97.4977 19.8343,146.106z"/>
  <path class="fil5" d="M799.205 633.026c-2.9374,48.0012 -9.69686,95.2843 -20.2559,141.845 -0.356693,2.29961 -1.08307,4.58268 -2.20394,6.76536 -0.140551,0.274016 -0.285827,0.543308 -0.435827,0.807875 -3.87284,-31.1457 -6.01654,-51.5717 -5.02441,-108.2 0.992127,-56.628 8.69646,-139.629 22.4929,-189.659 0.312992,1.16929 0.533859,2.37992 0.655512,3.62362l-0.0200788 0.0106299c5.4815,49.3902 8.66694,95.7957 4.79174,144.807z"/>
 </g>
</svg>
