<?xml version="1.0" encoding="UTF-8"?>
<!DOCTYPE svg PUBLIC "-//W3C//DTD SVG 1.1//EN" "http://www.w3.org/Graphics/SVG/1.1/DTD/svg11.dtd">
<!-- Creator: CorelDRAW -->
<svg xmlns="http://www.w3.org/2000/svg" xml:space="preserve" width="6.82666in" height="6.82666in" style="shape-rendering:geometricPrecision; text-rendering:geometricPrecision; image-rendering:optimizeQuality; fill-rule:evenodd; clip-rule:evenodd"
viewBox="0 0 6.82666 6.82666"
 xmlns:xlink="http://www.w3.org/1999/xlink">
 <defs>
  <style type="text/css">
   <![CDATA[
    .str1 {stroke:#212121;stroke-width:0.00333465;stroke-linecap:round;stroke-linejoin:round}
    .str0 {stroke:#B3B3B3;stroke-width:0.0333346;stroke-linecap:round;stroke-linejoin:round}
    .fil2 {fill:none}
    .fil8 {fill:black}
    .fil1 {fill:#1976D2}
    .fil7 {fill:#1A1A1A}
    .fil12 {fill:#2B2B2B}
    .fil6 {fill:#4290B4}
    .fil3 {fill:#4B4340}
    .fil11 {fill:#4D4D4D}
    .fil0 {fill:#64B5F6}
    .fil5 {fill:#CDCED2}
    .fil9 {fill:#E0E0E0}
    .fil13 {fill:#FFEE58}
    .fil4 {fill:#403632;fill-rule:nonzero}
    .fil10 {fill:#999999;fill-rule:nonzero}
   ]]>
  </style>
   <clipPath id="id0">
    <path d="M3.41333 0c1.88513,0 3.41333,1.5282 3.41333,3.41333 0,1.88513 -1.5282,3.41333 -3.41333,3.41333 -1.88513,0 -3.41333,-1.5282 -3.41333,-3.41333 0,-1.88513 1.5282,-3.41333 3.41333,-3.41333z"/>
   </clipPath>
 </defs>
 <g id="Layer_x0020_1">
  <metadata id="CorelCorpID_0Corel-Layer"/>
  <path class="fil0" d="M3.41333 0c1.88513,0 3.41333,1.5282 3.41333,3.41333 0,1.88513 -1.5282,3.41333 -3.41333,3.41333 -1.88513,0 -3.41333,-1.5282 -3.41333,-3.41333 0,-1.88513 1.5282,-3.41333 3.41333,-3.41333z"/>
  <g style="clip-path:url(#id0)">
   <g id="_414981152">
    <g>
     <polygon id="_3548905041" class="fil1" points="3.49357,2.8718 7.27984,6.65807 7.27998,6.65826 3.49371,2.87199 "/>
     <polygon id="_354890648" class="fil1" points="5.24669,1.93367 9.03295,5.71994 9.06627,5.76639 5.28,1.98011 "/>
     <polygon id="_354890264" class="fil1" points="5.28,1.98011 9.06627,5.76639 8.68855,6.08162 4.90228,2.29535 "/>
     <polygon id="_354890960" class="fil1" points="4.90228,2.29535 8.68855,6.08162 8.6908,6.08569 8.6928,6.08985 8.69453,6.09409 8.69601,6.09841 8.69724,6.1028 8.69822,6.10726 8.69894,6.11176 8.69943,6.11632 8.69968,6.12092 8.69969,6.12555 8.69947,6.13021 8.69902,6.13489 8.69834,6.13959 8.69744,6.1443 8.69631,6.149 8.69497,6.1537 8.69341,6.15838 8.69165,6.16304 8.68967,6.16768 8.68749,6.17228 8.6851,6.17684 8.68252,6.18135 8.67974,6.18581 8.67677,6.1902 8.67361,6.19453 8.67026,6.19878 8.66674,6.20295 8.66303,6.20703 8.65914,6.21101 8.65508,6.21489 8.65085,6.21866 8.64645,6.22231 4.86019,2.43604 4.86458,2.43239 4.86881,2.42862 4.87287,2.42474 4.87676,2.42076 4.88047,2.41668 4.884,2.41251 4.88734,2.40826 4.8905,2.40393 4.89348,2.39954 4.89625,2.39508 4.89883,2.39057 4.90122,2.38601 4.9034,2.38141 4.90538,2.37677 4.90715,2.37211 4.9087,2.36743 4.91005,2.36273 4.91117,2.35802 4.91207,2.35332 4.91275,2.34862 4.9132,2.34394 4.91343,2.33928 4.91341,2.33465 4.91317,2.33005 4.91268,2.32549 4.91195,2.32098 4.91097,2.31653 4.90974,2.31214 4.90826,2.30782 4.90653,2.30358 4.90454,2.29942 "/>
     <polygon id="_354891008" class="fil1" points="4.86019,2.43604 8.64645,6.22231 7.91257,6.81048 4.1263,3.02421 "/>
     <polygon id="_354891440" class="fil1" points="4.1263,3.02421 7.91257,6.81048 7.91173,6.81884 7.91063,6.82722 7.90925,6.83562 7.90761,6.84403 7.90571,6.85244 7.90354,6.86085 7.90111,6.86926 7.89843,6.87764 7.89549,6.88601 7.89229,6.89434 7.88884,6.90265 7.88514,6.91091 7.88119,6.91913 7.87698,6.92729 7.87254,6.9354 7.86785,6.94344 7.86291,6.95141 7.85774,6.9593 7.85233,6.96711 7.84668,6.97483 7.84079,6.98245 7.83467,6.98997 7.82832,6.99739 7.82174,7.00468 7.81493,7.01186 7.8079,7.01891 7.80064,7.02582 7.79315,7.0326 7.78545,7.03923 7.77753,7.04571 7.76939,7.05203 7.76103,7.05819 3.97476,3.27191 3.98312,3.26576 3.99126,3.25944 3.99918,3.25296 4.00689,3.24633 4.01437,3.23955 4.02163,3.23264 4.02867,3.22559 4.03547,3.21841 4.04206,3.21111 4.04841,3.2037 4.05452,3.19618 4.06041,3.18856 4.06606,3.18084 4.07147,3.17303 4.07665,3.16514 4.08158,3.15717 4.08627,3.14913 4.09072,3.14102 4.09492,3.13285 4.09887,3.12464 4.10257,3.11637 4.10602,3.10807 4.10922,3.09974 4.11216,3.09137 4.11485,3.08298 4.11728,3.07458 4.11944,3.06617 4.12135,3.05776 4.12298,3.04935 4.12436,3.04095 4.12546,3.03257 "/>
     <polygon id="_354891608" class="fil1" points="3.97476,3.27191 7.76103,7.05819 7.63283,7.15015 3.84657,3.36387 "/>
     <polygon id="_354891488" class="fil1" points="3.84657,3.36387 7.63283,7.15015 7.63455,7.15253 3.84828,3.36626 "/>
     <polygon id="_354891296" class="fil1" points="3.84828,3.36626 7.63455,7.15253 7.63469,7.15272 3.84842,3.36645 "/>
     <polygon id="_354891056" class="fil1" points="3.84842,3.36645 7.63469,7.15272 7.03341,7.60207 3.24714,3.8158 "/>
     <polygon id="_354890888" class="fil1" points="2.82541,4.74151 6.61167,8.52778 6.57728,8.55116 6.54213,8.57253 6.50629,8.59193 6.46982,8.60934 6.43281,8.62479 6.39531,8.63829 6.35741,8.64985 6.31917,8.65948 6.28067,8.66719 6.24197,8.673 6.20314,8.67691 6.16426,8.67894 6.1254,8.6791 6.08663,8.6774 6.04801,8.67386 6.00962,8.66848 5.97154,8.66127 5.93382,8.65226 5.89655,8.64144 5.85979,8.62883 5.82361,8.61444 5.78809,8.5983 5.75329,8.58039 5.71928,8.56075 5.68615,8.53937 5.65395,8.51627 5.62276,8.49147 1.8365,4.7052 1.86769,4.73 1.89988,4.7531 1.93302,4.77448 1.96702,4.79412 2.00182,4.81202 2.03734,4.82817 2.07352,4.84256 2.11028,4.85517 2.14755,4.86598 2.18527,4.875 2.22335,4.8822 2.26174,4.88759 2.30036,4.89113 2.33913,4.89283 2.378,4.89267 2.41687,4.89064 2.4557,4.88672 2.4944,4.88092 2.53291,4.8732 2.57115,4.86357 2.60905,4.85202 2.64654,4.83852 2.68356,4.82307 2.72002,4.80565 2.75586,4.78626 2.79102,4.76489 "/>
     <polygon id="_354891560" class="fil1" points="1.77396,2.98963 5.56023,6.77591 5.55542,6.77744 5.55077,6.77879 5.54628,6.77993 5.54197,6.78086 5.53784,6.78159 5.53391,6.78211 5.53018,6.78241 5.52667,6.7825 5.52337,6.78236 5.5203,6.782 5.51748,6.78142 5.5149,6.78061 5.51258,6.77957 5.51053,6.77829 5.50875,6.77677 1.72248,2.9905 1.72426,2.99202 1.72631,2.9933 1.72863,2.99434 1.73121,2.99515 1.73404,2.99573 1.7371,2.99609 1.7404,2.99622 1.74391,2.99614 1.74764,2.99583 1.75157,2.99532 1.7557,2.99459 1.76001,2.99366 1.7645,2.99252 1.76915,2.99117 "/>
     <polygon id="_354891584" class="fil1" points="1.95631,2.81709 5.74258,6.60337 5.74407,6.60513 5.7452,6.60699 5.74605,6.60902 5.74661,6.61122 5.7469,6.61357 5.74692,6.61608 5.74667,6.61874 5.74617,6.62154 5.7454,6.62446 5.74439,6.62752 5.74313,6.63069 5.74163,6.63398 5.73989,6.63738 5.73792,6.64088 5.73572,6.64447 5.7333,6.64815 5.73067,6.65192 1.9444,2.86565 1.94704,2.86188 1.94945,2.8582 1.95165,2.85461 1.95362,2.85111 1.95536,2.84771 1.95686,2.84442 1.95812,2.84124 1.95913,2.83819 1.9599,2.83526 1.96041,2.83247 1.96065,2.82981 1.96063,2.8273 1.96034,2.82495 1.95978,2.82275 1.95894,2.82072 1.95781,2.81885 "/>
     <polygon id="_354891392" class="fil1" points="1.97155,2.89074 5.75782,6.67701 5.76659,6.68557 5.77524,6.69423 5.78375,6.70298 5.79213,6.71183 5.8004,6.72075 5.80855,6.72976 5.81658,6.73886 5.8245,6.74804 5.83232,6.75729 5.84003,6.76661 5.84764,6.77601 5.85515,6.78548 5.86257,6.79501 5.86991,6.80461 5.87715,6.81427 5.88431,6.82399 5.89139,6.83377 5.8984,6.8436 5.90534,6.85348 5.9122,6.86341 5.91901,6.87339 5.92575,6.88341 5.93243,6.89348 5.93906,6.90358 5.94564,6.91372 5.95217,6.92389 5.95866,6.93409 5.96511,6.94432 5.97152,6.95458 2.18525,3.16831 2.17884,3.15805 2.17239,3.14782 2.1659,3.13762 2.15937,3.12744 2.15279,3.11731 2.14616,3.1072 2.13948,3.09714 2.13274,3.08712 2.12594,3.07714 2.11907,3.06721 2.11213,3.05733 2.10513,3.0475 2.09804,3.03772 2.09088,3.028 2.08364,3.01834 2.07631,3.00874 2.06889,2.9992 2.06137,2.98974 2.05376,2.98034 2.04605,2.97102 2.03824,2.96176 2.03031,2.95259 2.02228,2.94349 2.01413,2.93448 2.00587,2.92556 1.99748,2.91671 1.98897,2.90796 1.98033,2.8993 "/>
     <polygon id="_354891680" class="fil1" points="3.24714,3.8158 7.03341,7.60207 7.0432,7.637 7.05159,7.67214 7.05859,7.70748 7.0642,7.74296 7.06842,7.77854 7.07126,7.81419 7.07274,7.84986 7.07285,7.88551 7.0716,7.9211 7.06901,7.95659 7.06507,7.99194 7.0598,8.02711 7.05319,8.06205 7.04527,8.09673 7.03602,8.1311 7.02547,8.16513 7.01362,8.19876 7.00047,8.23196 6.98603,8.2647 6.97031,8.29693 6.95331,8.32859 6.93505,8.35967 6.91552,8.39012 6.89474,8.41988 6.87271,8.44893 6.84944,8.47722 6.82493,8.50472 6.7992,8.53137 6.77224,8.55714 6.74407,8.58199 6.71469,8.60588 6.68411,8.62876 2.89785,4.84249 2.92843,4.81961 2.9578,4.79572 2.98597,4.77087 3.01293,4.7451 3.03867,4.71844 3.06317,4.69095 3.08644,4.66266 3.10847,4.63361 3.12926,4.60385 3.14878,4.5734 3.16705,4.54232 3.18404,4.51065 3.19976,4.47843 3.2142,4.44569 3.22735,4.41249 3.2392,4.37885 3.24976,4.34483 3.259,4.31046 3.26693,4.27578 3.27353,4.24084 3.2788,4.20567 3.28274,4.17032 3.28533,4.13483 3.28658,4.09924 3.28647,4.06359 3.285,4.02792 3.28215,3.99227 3.27793,3.95669 3.27232,3.9212 3.26533,3.88587 3.25693,3.85072 "/>
    </g>
    <path id="_414981536" class="fil1" d="M2.18525 3.16831c0.235055,-0.0432402 0.480157,0.00557874 0.681161,0.137547l0.615697 -0.425839 0.0114646 -0.00822441 0.000141732 0.00019685 0.128193 -0.0919606c0.0877362,-0.0629409 0.1905,-0.0844016 0.275843,-0.065874l0.79985 -0.504772c0.0513937,-0.0324409 0.113362,-0.0326339 0.146028,0.00437402l0.403059 -0.280087 0.033315 0.0464409 -0.37772 0.315236c0.0254685,0.0429055 0.00569291,0.102394 -0.0420945,0.140689l-0.733882 0.588169c-0.00748425,0.0890433 -0.0612677,0.182945 -0.151539,0.247705l-0.128197 0.0919606 0.0017126 0.00238583 0.000137795 0.000192913 -0.60128 0.44935c0.112008,0.371118 -0.0167323,0.788118 -0.349291,1.02669l-0.0724409 -0.10098c-0.362516,0.260047 -0.867201,0.176988 -1.12725,-0.185528 -0.260051,-0.362508 -0.176988,-0.867193 0.18552,-1.12724l-0.072437 -0.100984c0.0391811,-0.0281102 0.0798071,-0.0527441 0.1215,-0.0739646 -0.0586457,-0.0839488 -0.112173,-0.171563 -0.158772,-0.264154 -0.0260709,0.00874016 -0.0457835,0.00912992 -0.0529764,-0.000893701 -0.0144134,-0.0200906 0.0269173,-0.0744094 0.092315,-0.121319 0.0653937,-0.0469134 0.130091,-0.0686575 0.144504,-0.0485669 0.0067874,0.00946063 0.00121654,0.0265039 -0.0134055,0.0467913 0.0988228,0.0875866 0.172642,0.19311 0.240846,0.302665z"/>
   </g>
  </g>
  <path class="fil2" d="M3.41333 0c1.88513,0 3.41333,1.5282 3.41333,3.41333 0,1.88513 -1.5282,3.41333 -3.41333,3.41333 -1.88513,0 -3.41333,-1.5282 -3.41333,-3.41333 0,-1.88513 1.5282,-3.41333 3.41333,-3.41333z"/>
  <circle class="fil3" transform="matrix(0.512801 -0.367862 0.367863 0.512801 2.35454 4.08512)" r="1.28"/>
  <path class="fil2" d="M2.67529 4.51014c-0.238882,0.171362 -0.571449,0.11663 -0.742811,-0.122252 -0.171362,-0.238878 -0.11663,-0.571445 0.122252,-0.742811"/>
  <path class="fil4" d="M2.68388 4.51873c0.00474016,-0.00474016 0.00474016,-0.0124409 0,-0.0171811 -0.00434252,-0.00434252 -0.0111535,-0.00470866 -0.0159134,-0.0011063l0.000244094 -0.000173228 0.00704331 0.00983465 -0.00855906 -0.00855512c0.000405512,-0.000401575 0.000826772,-0.000771654 0.00127165,-0.0011063 -0.116689,0.0836063 -0.256201,0.112051 -0.387457,0.0904528 -0.131319,-0.0216142 -0.254421,-0.0933504 -0.33815,-0.210075l-0.00987402 0.0070748 0.00847244 -0.00607874 0.0013937 -0.001 7.87402e-006 -7.87402e-006 -0.000212598 -0.000283465c-0.0835787,-0.116677 -0.11202,-0.256173 -0.0904252,-0.387413 0.0216102,-0.131323 0.0933504,-0.254425 0.210079,-0.338161 0.00544882,-0.00390157 0.00670472,-0.0114961 0.00279921,-0.0169449 -0.00390157,-0.00545276 -0.0114961,-0.00670472 -0.0169449,-0.00280315 -0.12215,0.087622 -0.197224,0.2165 -0.219854,0.354016 -0.0225984,0.137327 0.00711811,0.283264 0.0944961,0.405311 0.000200787,0.000311024 0.00042126,0.000610236 0.000653543,0.000905512 0.0876142,0.121862 0.216331,0.19678 0.353669,0.219382 0.137319,0.0225984 0.283256,-0.00711417 0.405303,-0.0944921 0.000688976,-0.000452756 0.00134252,-0.000976378 0.00195276,-0.00158661l-3.93701e-006 0 7.87402e-006 -7.87402e-006z"/>
  <path class="fil4" d="M2.82009 4.6808c0.00435827,-0.00312598 0.00535433,-0.00919685 0.00222835,-0.0135512 -0.00312205,-0.00435827 -0.00919291,-0.00535827 -0.0135472,-0.00223228 -0.165138,0.118465 -0.362661,0.158776 -0.548504,0.128193 -0.185843,-0.0305866 -0.360024,-0.132075 -0.478488,-0.297213 -0.118461,-0.165138 -0.158776,-0.362657 -0.128189,-0.5485 0.0305866,-0.185843 0.132075,-0.360024 0.297213,-0.478488 0.00435433,-0.00312598 0.00535433,-0.00919291 0.00222835,-0.0135512 -0.00312598,-0.00435433 -0.00919291,-0.00535433 -0.0135512,-0.00222835 -0.169492,0.121587 -0.273654,0.300362 -0.305047,0.491114 -0.0313937,0.190752 0.00998031,0.393484 0.131567,0.562976 0.121587,0.169488 0.300366,0.273654 0.491118,0.305047 0.190748,0.0313937 0.39348,-0.00998425 0.562972,-0.131567z"/>
  <path class="fil2" d="M2.80345 4.6043c-0.30674,0.220043 -0.733783,0.149764 -0.953827,-0.15698 -0.220043,-0.30674 -0.149764,-0.733783 0.15698,-0.953827"/>
  <path class="fil4" d="M2.81053 4.61418c0.00544882,-0.00390157 0.00670472,-0.0114961 0.00279921,-0.0169449 -0.00390157,-0.00545276 -0.0114961,-0.00670472 -0.0169449,-0.00280315 -0.150669,0.108083 -0.33087,0.144866 -0.500409,0.116969 -0.169508,-0.0278976 -0.328398,-0.120488 -0.436472,-0.271146 -0.108083,-0.150669 -0.14487,-0.330874 -0.116969,-0.500409 0.0278976,-0.169508 0.120488,-0.328398 0.271146,-0.436472 0.00544882,-0.00390551 0.00670472,-0.0114961 0.00279921,-0.0169488 -0.00390157,-0.00544882 -0.0114961,-0.00670472 -0.0169449,-0.00279921 -0.156075,0.111961 -0.252004,0.276626 -0.280921,0.452331 -0.0289094,0.175673 0.0091811,0.362374 0.121138,0.518445 0.111965,0.156075 0.27663,0.252004 0.452335,0.280921 0.175677,0.0289134 0.362378,-0.0091811 0.518445,-0.121142z"/>
  <path class="fil5" d="M2.35454 4.08512l-0.543307 -0.757366c0.418287,-0.300059 1.00062,-0.20422 1.30068,0.214063 0.300059,0.418283 0.20422,1.00061 -0.214063,1.30067l-0.543307 -0.75737z"/>
  <circle class="fil6" transform="matrix(0.507168 -0.363821 0.363821 0.507167 2.35454 4.08512)" r="0.746665"/>
  <path class="fil7" d="M1.76753 2.97673l0.166937 -0.119752c0.199425,0.17139 0.297866,0.415224 0.446799,0.622835l-0.166941 0.119752c-0.173776,-0.189787 -0.332138,-0.390638 -0.446795,-0.622835z"/>
  <ellipse class="fil8" transform="matrix(0.473356 -0.339566 0.339566 0.473355 1.8394 2.9038)" rx="0.25015" ry="0.0768504"/>
  <path class="fil9" d="M2.09114 3.87784l1.40243 -1.00605 0.354709 0.494465 -1.40244 1.00605c-0.0694291,0.0498071 -0.156921,0.0477638 -0.194441,-0.00453937l-0.21828 -0.304283c-0.0375197,-0.0522992 -0.0114134,-0.135835 0.0580157,-0.185642z"/>
  <path class="fil10" d="M2.68095 3.57683c-0.0066063,-0.00920866 -0.0225591,-0.00907087 -0.0356299,0.00030315 -0.0130709,0.00937795 -0.018311,0.0244449 -0.0117047,0.0336535l0.239047 0.333236c0.0066063,0.00920866 0.0225591,0.00907087 0.0356299,-0.00030315 0.0130709,-0.00937795 0.018315,-0.0244449 0.0117047,-0.0336535l-0.239047 -0.333236z"/>
  <circle class="fil11" transform="matrix(0.473356 -0.339566 0.339566 0.473355 2.61141 3.81568)" r="0.0945433"/>
  <ellipse class="fil8" transform="matrix(0.473356 -0.339566 0.27852 0.388257 2.33094 3.55999)" rx="0.424437" ry="0.0973543"/>
  <rect class="fil7" transform="matrix(0.473356 -0.339566 0.311671 0.434469 2.27923 3.63717)" width="0.246539" height="0.160693"/>
  <path class="fil2 str0" d="M2.16919 3.91219l1.23327 -0.884697 0.280197 0.390591 -1.23328 0.884697c-0.0610551,0.0437992 -0.135252,0.0458307 -0.164886,0.00451575l-0.172429 -0.240362c-0.0296378,-0.041315 -0.00393701,-0.110945 0.057122,-0.154744z"/>
  <polygon class="fil12 str1" points="4.81165,2.23598 5.24669,1.93367 5.28,1.98011 4.87223,2.32043 "/>
  <path class="fil8 str1" d="M3.89566 2.71548l0.801933 -0.506091c0.0541496,-0.0341732 0.120028,-0.032563 0.15102,0.0106417l0.0498937 0.0695472c0.0309921,0.0432008 0.0116496,0.106417 -0.0383189,0.146465l-0.739709 0.592835 -0.224819 -0.313398z"/>
  <polygon class="fil13" points="2.65975,3.44879 3.49371,2.87199 3.84842,3.36645 3.03615,3.97348 "/>
  <path class="fil12" d="M3.3919 2.94503l0.230004 -0.164996c0.144,-0.103299 0.32848,-0.094874 0.409969,0.0187205l0.0565394 0.078815c0.0814882,0.113594 0.0303465,0.291047 -0.11365,0.394346l-0.230008 0.164996 -0.352854 -0.491882z"/>
  <path class="fil10" d="M2.27746 3.85356c-0.00269685,-0.00375984 -0.0092126,-0.00370472 -0.0145512,0.000125984 -0.00533858,0.00383071 -0.00748031,0.00998425 -0.00477953,0.0137441l0.0976339 0.136102c0.00269685,0.00376378 0.0092126,0.00370472 0.0145512,-0.000122047 0.00533858,-0.00383071 0.00748031,-0.00998425 0.00478346,-0.013748l-0.0976378 -0.136102z"/>
  <path class="fil10" d="M2.33215 4.13181c-0.00791732,0.00567717 -0.00779921,0.0193858 0.000259843,0.030622 0.00805906,0.0112323 0.0210039,0.0157362 0.0289213,0.0100591l0.28637 -0.205433c0.00791339,-0.00567717 0.00779528,-0.0193858 -0.000259843,-0.0306181 -0.00805906,-0.0112323 -0.0210079,-0.0157362 -0.0289213,-0.0100591l-0.28637 0.205429z"/>
 </g>
</svg>
