<?xml version="1.0" encoding="UTF-8"?>
<!DOCTYPE svg PUBLIC "-//W3C//DTD SVG 1.1//EN" "http://www.w3.org/Graphics/SVG/1.1/DTD/svg11.dtd">
<!-- Creator: CorelDRAW -->
<svg xmlns="http://www.w3.org/2000/svg" xml:space="preserve" width="6.82666in" height="6.82666in" style="shape-rendering:geometricPrecision; text-rendering:geometricPrecision; image-rendering:optimizeQuality; fill-rule:evenodd; clip-rule:evenodd"
viewBox="0 0 6.82666 6.82666"
 xmlns:xlink="http://www.w3.org/1999/xlink">
 <defs>
  <style type="text/css">
   <![CDATA[
    .fil2 {fill:none}
    .fil1 {fill:#E6C047}
    .fil0 {fill:#FFD54F}
    .fil5 {fill:#006064;fill-rule:nonzero}
    .fil6 {fill:#00838F;fill-rule:nonzero}
    .fil3 {fill:#26C6DA;fill-rule:nonzero}
    .fil4 {fill:#8D6E63;fill-rule:nonzero}
    .fil7 {fill:#FF5722;fill-rule:nonzero}
   ]]>
  </style>
   <clipPath id="id0">
    <path d="M3.41333 0c1.88513,0 3.41333,1.5282 3.41333,3.41333 0,1.88513 -1.5282,3.41333 -3.41333,3.41333 -1.88513,0 -3.41333,-1.5282 -3.41333,-3.41333 0,-1.88513 1.5282,-3.41333 3.41333,-3.41333z"/>
   </clipPath>
 </defs>
 <g id="Layer_x0020_1">
  <metadata id="CorelCorpID_0Corel-Layer"/>
  <path class="fil0" d="M3.41333 0c1.88513,0 3.41333,1.5282 3.41333,3.41333 0,1.88513 -1.5282,3.41333 -3.41333,3.41333 -1.88513,0 -3.41333,-1.5282 -3.41333,-3.41333 0,-1.88513 1.5282,-3.41333 3.41333,-3.41333z"/>
  <g style="clip-path:url(#id0)">
   <g id="_414974768">
    <g>
     <polygon id="_3666907841" class="fil1" points="5.13624,1.54667 8.92251,5.33294 8.92094,5.33409 8.91937,5.33525 8.91781,5.33642 8.91627,5.33759 8.91472,5.33876 8.91319,5.33994 8.91165,5.34113 8.91013,5.34232 5.12386,1.55605 5.12539,1.55486 5.12692,1.55367 5.12845,1.55249 5.13,1.55131 5.13155,1.55015 5.13311,1.54898 5.13467,1.54782 "/>
     <polygon id="_366691264" class="fil1" points="5.28,1.76627 9.06626,5.55254 9.06626,6.01674 5.28,2.23047 "/>
     <polygon id="_366691840" class="fil1" points="5.28,2.23047 9.06626,6.01674 9.06619,6.02239 9.06598,6.02801 9.06562,6.03359 9.06513,6.03914 9.06449,6.04464 9.06372,6.05011 9.06282,6.05553 9.06179,6.0609 9.06062,6.06623 9.05933,6.07151 9.0579,6.07674 9.05636,6.08192 9.05469,6.08705 9.05289,6.09212 9.05098,6.09713 9.04895,6.10208 9.0468,6.10698 9.04454,6.11181 9.04217,6.11657 9.03968,6.12127 9.03709,6.12591 9.03439,6.13047 9.03157,6.13496 9.02866,6.13938 9.02565,6.14372 9.02253,6.14799 9.01931,6.15218 9.016,6.15629 9.01259,6.16032 9.00909,6.16426 9.0055,6.16812 9.00182,6.17189 5.21555,2.38562 5.21923,2.38185 5.22283,2.37799 5.22633,2.37405 5.22974,2.37002 5.23305,2.36591 5.23626,2.36172 5.23938,2.35745 5.24239,2.35311 5.24531,2.34869 5.24812,2.3442 5.25082,2.33963 5.25341,2.335 5.2559,2.3303 5.25828,2.32554 5.26054,2.3207 5.26269,2.31581 5.26471,2.31086 5.26663,2.30585 5.26842,2.30078 5.27009,2.29565 5.27163,2.29047 5.27306,2.28524 5.27435,2.27996 5.27552,2.27463 5.27655,2.26926 5.27746,2.26383 5.27822,2.25837 5.27886,2.25287 5.27935,2.24732 5.27971,2.24174 5.27993,2.23612 "/>
     <polygon id="_366692032" class="fil1" points="5.21555,2.38562 9.00182,6.17189 8.99805,6.17558 8.99419,6.17917 8.99024,6.18267 8.98622,6.18608 8.98211,6.18939 8.97792,6.19261 8.97365,6.19572 8.9693,6.19874 8.96489,6.20165 8.96039,6.20446 8.95583,6.20717 8.9512,6.20976 8.9465,6.21224 8.94173,6.21462 8.9369,6.21688 8.93201,6.21903 8.92705,6.22106 8.92204,6.22297 8.91697,6.22476 8.91184,6.22644 8.90667,6.22798 8.90143,6.22941 8.89615,6.2307 8.89083,6.23186 8.88545,6.2329 8.88003,6.2338 8.87456,6.23457 8.86906,6.2352 8.86352,6.2357 8.85793,6.23606 8.85231,6.23627 8.84666,6.23634 5.06039,2.45007 5.06605,2.45 5.07167,2.44978 5.07725,2.44943 5.08279,2.44893 5.0883,2.4483 5.09376,2.44753 5.09918,2.44663 5.10456,2.44559 5.10989,2.44443 5.11517,2.44313 5.1204,2.44171 5.12557,2.44017 5.1307,2.43849 5.13577,2.4367 5.14078,2.43479 5.14574,2.43276 5.15063,2.43061 5.15546,2.42835 5.16023,2.42597 5.16493,2.42349 5.16956,2.42089 5.17413,2.41819 5.17862,2.41538 5.18304,2.41247 5.18738,2.40945 5.19165,2.40633 5.19584,2.40312 5.19995,2.39981 5.20398,2.3964 5.20792,2.3929 5.21178,2.38931 "/>
     <polygon id="_366691408" class="fil1" points="1.84407,2.06636 5.63033,5.85263 5.48849,5.85263 1.70222,2.06636 "/>
     <polygon id="_366691504" class="fil1" points="1.70222,2.06636 5.48849,5.85263 5.48849,6.372 1.70222,2.58573 "/>
     <polygon id="_366692272" class="fil1" points="5.06039,2.45007 8.84666,6.23634 5.84994,6.23634 2.06367,2.45007 "/>
     <polygon id="_366692200" class="fil1" points="2.06367,2.45007 5.84994,6.23634 5.84428,6.23627 5.83867,6.23606 5.83308,6.2357 5.82754,6.2352 5.82204,6.23457 5.81657,6.2338 5.81115,6.2329 5.80578,6.23186 5.80045,6.2307 5.79517,6.22941 5.78994,6.22798 5.78476,6.22644 5.77963,6.22476 5.77456,6.22297 5.76955,6.22106 5.76459,6.21903 5.7597,6.21688 5.75487,6.21462 5.75011,6.21224 5.74541,6.20976 5.74077,6.20717 5.73621,6.20446 5.73172,6.20165 5.7273,6.19874 5.72295,6.19572 5.71869,6.19261 5.7145,6.18939 5.71039,6.18608 5.70636,6.18267 5.70241,6.17917 5.69856,6.17558 1.91229,2.38931 1.91615,2.3929 1.92009,2.3964 1.92412,2.39981 1.92823,2.40312 1.93242,2.40633 1.93669,2.40945 1.94103,2.41247 1.94545,2.41538 1.94994,2.41819 1.9545,2.42089 1.95914,2.42349 1.96384,2.42597 1.96861,2.42835 1.97344,2.43061 1.97833,2.43276 1.98328,2.43479 1.9883,2.4367 1.99337,2.43849 1.99849,2.44017 2.00367,2.44171 2.0089,2.44313 2.01418,2.44443 2.01951,2.44559 2.02488,2.44663 2.0303,2.44753 2.03577,2.4483 2.04127,2.44893 2.04681,2.44943 2.0524,2.44978 2.05802,2.45 "/>
     <polygon id="_366692728" class="fil1" points="3.61703,2.60851 7.4033,6.39478 7.40832,6.4003 7.4128,6.40629 7.41669,6.4127 7.41997,6.4195 7.42259,6.42665 7.4245,6.4341 7.42568,6.44183 7.42608,6.44978 3.63981,2.66351 3.63941,2.65556 3.63824,2.64783 3.63632,2.64038 3.6337,2.63323 3.63043,2.62643 3.62653,2.62002 3.62205,2.61403 "/>
     <polygon id="_366692344" class="fil1" points="3.48426,2.74129 7.27052,6.52756 5.41071,6.52756 1.62444,2.74129 "/>
     <polygon id="_366692464" class="fil1" points="3.63981,2.66351 7.42608,6.44978 7.42608,6.93923 3.63981,3.15296 "/>
     <polygon id="_366692488" class="fil1" points="3.80626,3.38076 7.59253,7.16703 7.59247,7.17261 7.59228,7.17817 7.59196,7.18369 7.59152,7.18919 7.59096,7.19464 7.59028,7.20006 7.58947,7.20544 7.58856,7.21079 7.58752,7.21609 7.58636,7.22135 7.58509,7.22657 7.58372,7.23174 7.58222,7.23686 7.58063,7.24194 7.57892,7.24697 7.5771,7.25194 7.57518,7.25687 7.57316,7.26174 7.57103,7.26656 7.5688,7.27132 7.56647,7.27602 7.56404,7.28066 7.56152,7.28524 7.5589,7.28976 7.55619,7.29422 7.55338,7.29861 7.55048,7.30293 7.54749,7.30719 7.54442,7.31137 7.54125,7.31548 7.538,7.31952 7.53467,7.32349 3.7484,3.53722 3.75174,3.53325 3.75498,3.52921 3.75815,3.5251 3.76122,3.52091 3.76421,3.51666 3.76711,3.51233 3.76992,3.50794 3.77263,3.50349 3.77525,3.49897 3.77778,3.49439 3.7802,3.48975 3.78253,3.48505 3.78476,3.48029 3.78689,3.47547 3.78891,3.4706 3.79083,3.46567 3.79265,3.4607 3.79436,3.45567 3.79596,3.45059 3.79745,3.44546 3.79883,3.4403 3.80009,3.43508 3.80125,3.42982 3.80229,3.42452 3.8032,3.41917 3.80401,3.41379 3.80469,3.40837 3.80526,3.40291 3.80569,3.39742 3.80601,3.3919 3.8062,3.38634 "/>
     <polygon id="_366692584" class="fil1" points="3.81887,3.5917 7.60514,7.37797 7.61096,7.38394 7.61665,7.39004 7.62219,7.39628 7.62759,7.40266 7.63283,7.40916 7.63791,7.41579 7.64285,7.42254 7.64762,7.42941 7.65223,7.4364 7.65667,7.44351 7.66095,7.45073 7.66506,7.45806 7.66899,7.46549 7.67275,7.47303 7.67633,7.48067 7.67972,7.48841 7.68294,7.49624 7.68596,7.50417 7.6888,7.51219 7.69144,7.5203 7.69389,7.52848 7.69614,7.53676 7.69819,7.54511 7.70003,7.55354 7.70167,7.56204 7.7031,7.57061 7.70431,7.57924 7.70531,7.58795 7.7061,7.59672 7.70667,7.60554 7.707,7.61443 7.70712,7.62336 3.92085,3.83709 3.92074,3.82815 3.9204,3.81927 3.91983,3.81044 3.91905,3.80168 3.91805,3.79297 3.91683,3.78433 3.9154,3.77576 3.91376,3.76726 3.91192,3.75883 3.90987,3.75048 3.90762,3.74221 3.90517,3.73402 3.90253,3.72592 3.89969,3.7179 3.89667,3.70997 3.89346,3.70214 3.89006,3.6944 3.88648,3.68676 3.88272,3.67922 3.87879,3.67178 3.87468,3.66446 3.87041,3.65724 3.86596,3.65013 3.86135,3.64314 3.85658,3.63627 3.85165,3.62952 3.84656,3.62289 3.84132,3.61639 3.83593,3.61001 3.83039,3.60377 3.8247,3.59767 "/>
     <polygon id="_366692632" class="fil1" points="3.92085,3.83709 7.70712,7.62336 7.70712,8.71889 3.92085,4.93262 "/>
     <polygon id="_366692080" class="fil1" points="1.62444,2.74129 5.41071,6.52756 5.40276,6.52716 5.39504,6.52598 5.38758,6.52406 5.38044,6.52144 5.37364,6.51817 5.36722,6.51428 5.36124,6.5098 5.35571,6.50478 1.56944,2.7185 1.57497,2.72352 1.58096,2.728 1.58737,2.7319 1.59417,2.73517 1.60131,2.73779 1.60877,2.73971 1.61649,2.74089 "/>
     <polygon id="_366692152" class="fil1" points="3.81887,5.17802 7.60514,8.96429 7.59917,8.97011 7.59306,8.9758 7.58682,8.98134 7.58045,8.98674 7.57394,8.99198 7.56732,8.99706 7.56057,9.002 7.55369,9.00677 7.5467,9.01138 7.53959,9.01582 7.53238,9.0201 7.52505,9.0242 7.51761,9.02814 7.51007,9.0319 7.50243,9.03548 7.4947,9.03887 7.48686,9.04209 7.47893,9.04511 7.47092,9.04795 7.46281,9.05059 7.45462,9.05304 7.44635,9.05529 7.438,9.05734 7.42957,9.05918 7.42107,9.06082 7.4125,9.06225 7.40386,9.06346 7.39515,9.06446 7.38639,9.06525 7.37756,9.06581 7.36868,9.06615 7.35974,9.06627 3.57347,5.28 3.58241,5.27988 3.59129,5.27954 3.60012,5.27898 3.60889,5.27819 3.61759,5.27719 3.62623,5.27598 3.6348,5.27455 3.6433,5.27291 3.65173,5.27107 3.66008,5.26902 3.66835,5.26677 3.67654,5.26432 3.68465,5.26168 3.69267,5.25884 3.70059,5.25581 3.70843,5.2526 3.71617,5.2492 3.72381,5.24563 3.73135,5.24187 3.73878,5.23793 3.74611,5.23383 3.75333,5.22955 3.76043,5.22511 3.76743,5.2205 3.7743,5.21572 3.78105,5.21079 3.78768,5.2057 3.79418,5.20046 3.80056,5.19507 3.8068,5.18953 3.8129,5.18384 "/>
     <polygon id="_366693448" class="fil1" points="3.57347,5.28 7.35974,9.06627 7.3508,9.06615 7.34192,9.06581 7.33309,9.06525 7.32433,9.06446 7.31562,9.06346 7.30698,9.06225 7.29841,9.06082 7.28991,9.05918 7.28148,9.05734 7.27313,9.05529 7.26486,9.05304 7.25667,9.05059 7.24857,9.04795 7.24055,9.04511 7.23262,9.04209 7.22478,9.03887 7.21705,9.03548 7.20941,9.0319 7.20187,9.02814 7.19443,9.0242 7.1871,9.0201 7.17989,9.01582 7.17278,9.01138 7.16579,9.00677 7.15892,9.002 7.15217,8.99706 7.14554,8.99198 7.13904,8.98674 7.13266,8.98134 7.12642,8.9758 3.34015,5.18953 3.34639,5.19507 3.35277,5.20046 3.35927,5.2057 3.3659,5.21079 3.37265,5.21572 3.37952,5.2205 3.38651,5.22511 3.39362,5.22955 3.40083,5.23383 3.40817,5.23793 3.4156,5.24187 3.42314,5.24563 3.43078,5.2492 3.43852,5.2526 3.44635,5.25581 3.45428,5.25884 3.4623,5.26168 3.4704,5.26432 3.47859,5.26677 3.48687,5.26902 3.49522,5.27107 3.50364,5.27291 3.51214,5.27455 3.52071,5.27598 3.52935,5.27719 3.53806,5.27819 3.54683,5.27898 3.55565,5.27954 3.56454,5.27988 "/>
     <polygon id="_366693088" class="fil1" points="3.73868,3.21364 7.52495,6.99991 7.52881,7.004 7.53259,7.00817 7.53626,7.01244 7.53984,7.01679 7.54331,7.02123 7.54669,7.02576 7.54996,7.03037 7.55312,7.03506 7.55618,7.03983 7.55913,7.04467 7.56196,7.04959 7.56468,7.05459 7.56729,7.05965 7.56978,7.06479 7.57215,7.06999 7.5744,7.07526 7.57652,7.0806 7.57853,7.08599 7.58041,7.09145 7.58216,7.09696 7.58378,7.10254 7.58527,7.10816 7.58662,7.11384 7.58784,7.11957 7.58893,7.12535 7.58987,7.13118 7.59068,7.13705 7.59134,7.14297 7.59186,7.14893 7.59223,7.15492 7.59246,7.16096 7.59253,7.16703 3.80626,3.38076 3.80619,3.37469 3.80596,3.36865 3.80559,3.36265 3.80507,3.3567 3.80441,3.35078 3.80361,3.34491 3.80266,3.33908 3.80157,3.3333 3.80035,3.32757 3.799,3.32189 3.79751,3.31626 3.79589,3.31069 3.79414,3.30518 3.79226,3.29972 3.79026,3.29433 3.78813,3.28899 3.78588,3.28372 3.78351,3.27852 3.78102,3.27338 3.77841,3.26831 3.77569,3.26332 3.77286,3.2584 3.76991,3.25356 3.76685,3.24879 3.76369,3.2441 3.76042,3.23949 3.75705,3.23496 3.75357,3.23052 3.75,3.22617 3.74632,3.2219 3.74255,3.21772 "/>
     <polygon id="_366693232" class="fil1" points="3.92085,4.93262 7.70712,8.71889 7.707,8.72783 7.70667,8.73671 7.7061,8.74554 7.70531,8.75431 7.70431,8.76301 7.7031,8.77165 7.70167,8.78022 7.70003,8.78872 7.69819,8.79715 7.69614,8.8055 7.69389,8.81377 7.69144,8.82196 7.6888,8.83007 7.68596,8.83809 7.68294,8.84601 7.67972,8.85385 7.67633,8.86159 7.67275,8.86923 7.66899,8.87677 7.66506,8.8842 7.66095,8.89153 7.65667,8.89875 7.65223,8.90585 7.64762,8.91284 7.64285,8.91972 7.63791,8.92647 7.63283,8.9331 7.62759,8.9396 7.62219,8.94597 7.61665,8.95221 7.61096,8.95832 7.60514,8.96429 3.81887,5.17802 3.8247,5.17205 3.83039,5.16594 3.83593,5.1597 3.84132,5.15333 3.84656,5.14683 3.85165,5.1402 3.85658,5.13344 3.86135,5.12657 3.86596,5.11958 3.87041,5.11248 3.87468,5.10526 3.87879,5.09793 3.88272,5.0905 3.88648,5.08296 3.89006,5.07531 3.89346,5.06757 3.89667,5.05974 3.89969,5.05181 3.90253,5.0438 3.90517,5.03569 3.90762,5.0275 3.90987,5.01923 3.91192,5.01088 3.91376,5.00245 3.9154,4.99395 3.91683,4.98538 3.91805,4.97674 3.91905,4.96804 3.91983,4.95927 3.9204,4.95044 3.92074,4.94156 "/>
     <polygon id="_366693424" class="fil1" points="5.22974,1.62672 9.016,5.41299 9.01931,5.4171 9.02253,5.42129 9.02565,5.42556 9.02866,5.4299 9.03157,5.43432 9.03439,5.43881 9.03709,5.44337 9.03968,5.44801 9.04217,5.45271 9.04454,5.45748 9.0468,5.46231 9.04895,5.4672 9.05098,5.47215 9.05289,5.47717 9.05469,5.48224 9.05636,5.48736 9.0579,5.49254 9.05933,5.49777 9.06062,5.50305 9.06179,5.50838 9.06282,5.51375 9.06372,5.51917 9.06449,5.52464 9.06513,5.53014 9.06562,5.53569 9.06598,5.54127 9.06619,5.54689 9.06626,5.55254 5.28,1.76627 5.27993,1.76061 5.27971,1.755 5.27935,1.74941 5.27886,1.74387 5.27822,1.73837 5.27746,1.7329 5.27655,1.72748 5.27552,1.72211 5.27435,1.71678 5.27306,1.7115 5.27163,1.70627 5.27009,1.70109 5.26842,1.69596 5.26663,1.69089 5.26471,1.68588 5.26269,1.68093 5.26054,1.67604 5.25828,1.6712 5.2559,1.66644 5.25341,1.66174 5.25082,1.6571 5.24812,1.65254 5.24531,1.64805 5.24239,1.64363 5.23938,1.63928 5.23626,1.63502 5.23305,1.63083 "/>
    </g>
    <path id="_414974528" class="fil1" d="M5.12386 1.55605c0.0350433,0.010626 0.0664252,0.0297992 0.091689,0.055063 0.0397598,0.0397638 0.0644449,0.094685 0.0644449,0.155154l0 0.464201c0,0.0604685 -0.024685,0.115394 -0.0644449,0.155154 -0.0397638,0.0397638 -0.094685,0.0644488 -0.155157,0.0644488l-2.99672 0c-0.0604685,0 -0.11539,-0.024685 -0.155154,-0.0644488 -0.0397638,-0.0397598 -0.0644488,-0.094685 -0.0644488,-0.155154l0 -0.164106 -0.141843 0 0 0.519366 1.85981 0c0.0429528,0 0.0777795,0.0348228 0.0777795,0.0777795l0 0.489453c0.0378622,0.0115276 0.0717047,0.0326693 0.0988661,0.0606811 0.041752,0.0430591 0.0675827,0.102169 0.0675827,0.167114 0,0.059748 -0.0218583,0.114547 -0.0578622,0.156465 0.0257835,0.015122 0.0494606,0.0334685 0.0704685,0.0544764 0.0629213,0.0629213 0.10198,0.149787 0.10198,0.245394l0 1.09553c0,0.0956063 -0.0390591,0.182472 -0.10198,0.245394 -0.0629252,0.0629213 -0.149787,0.10198 -0.245398,0.10198 -0.0956102,0 -0.182472,-0.0390591 -0.245394,-0.10198 -0.0629252,-0.0629213 -0.101984,-0.149783 -0.101984,-0.245394l0 -1.09553c0,-0.0956102 0.0390591,-0.182472 0.101984,-0.245394 0.0210079,-0.0210079 0.044685,-0.0393583 0.0704646,-0.0544803 -0.036,-0.0419134 -0.0578583,-0.0967165 -0.0578583,-0.156461 0,-0.0649449 0.0258268,-0.124059 0.0675827,-0.167114 0.021563,-0.0222362 0.0473346,-0.0401457 0.0759882,-0.0523504l0 -0.420004 -1.85981 0c-0.0429567,0 -0.0777795,-0.0348268 -0.0777795,-0.0777795l0 -0.674925c0,-0.0429528 0.0348228,-0.0777795 0.0777795,-0.0777795l0.219622 0 0 -0.144535c0,-0.0604685 0.024685,-0.11539 0.0644488,-0.155154 0.0397638,-0.0397638 0.094685,-0.0644488 0.155154,-0.0644488l1.56048 0 0.363594 0 1.14849 0c-0.00419685,0.00307087 -0.00832283,0.00620079 -0.012378,0.00938583z"/>
   </g>
  </g>
  <path class="fil2" d="M3.41333 0c1.88513,0 3.41333,1.5282 3.41333,3.41333 0,1.88513 -1.5282,3.41333 -3.41333,3.41333 -1.88513,0 -3.41333,-1.5282 -3.41333,-3.41333 0,-1.88513 1.5282,-3.41333 3.41333,-3.41333z"/>
  <path class="fil3" d="M3.48426 3.223c0,0.0429567 0.0348228,0.0777795 0.0777795,0.0777795 0.0429528,0 0.0777795,-0.0348228 0.0777795,-0.0777795l0 -0.559492c0,-0.0429567 -0.0348268,-0.0777795 -0.0777795,-0.0777795l-1.85981 0 0 -0.519366 0.203224 0c0.0429528,0 0.0777795,-0.0348228 0.0777795,-0.0777795 0,-0.0429528 -0.0348268,-0.0777795 -0.0777795,-0.0777795l-0.281004 0c-0.0429567,0 -0.0777795,0.0348268 -0.0777795,0.0777795l0 0.674925c0,0.0429528 0.0348228,0.0777795 0.0777795,0.0777795l1.85981 0 0 0.481713z"/>
  <path class="fil4" d="M2.06367 1.54667l1.92408 0c0.19574,0.396717 0.944921,-0.0652165 1.08394,0.0434291 0.024252,-0.0048189 0.0411575,-0.0193386 0.0448583,-0.036122 0.0379882,0.0100866 0.0719921,0.0301339 0.099,0.0571417 0.0397598,0.0397638 0.0644449,0.094685 0.0644449,0.155154l0 0.464201c0,0.0604685 -0.024685,0.115394 -0.0644449,0.155154 -0.0397638,0.0397638 -0.094685,0.0644488 -0.155157,0.0644488l-2.99672 0c-0.0604685,0 -0.11539,-0.024685 -0.155154,-0.0644488 -0.0397638,-0.0397598 -0.0644488,-0.094685 -0.0644488,-0.155154l0 -0.464201c0,-0.0604685 0.024685,-0.11539 0.0644488,-0.155154 0.0397638,-0.0397638 0.094685,-0.0644488 0.155154,-0.0644488z"/>
  <path class="fil5" d="M3.57348 3.14312c0.0645472,0 0.122961,0.0269528 0.165205,0.0705197 0.041752,0.0430591 0.0675827,0.102169 0.0675827,0.167114 0,0.0649488 -0.0258307,0.124055 -0.0675827,0.167114 -0.0422441,0.0435709 -0.100657,0.0705236 -0.165205,0.0705236 -0.0645512,0 -0.122965,-0.0269528 -0.165209,-0.0705236 -0.041752,-0.0430591 -0.0675827,-0.102165 -0.0675827,-0.167114 0,-0.0649449 0.0258268,-0.124059 0.0675827,-0.167114 0.0422441,-0.0435669 0.100657,-0.0705197 0.165209,-0.0705197z"/>
  <path class="fil6" d="M3.57347 3.48972l3.93701e-006 0c0.0956063,0 0.182469,0.0390591 0.245394,0.10198 0.0629213,0.0629213 0.10198,0.149787 0.10198,0.245394l0 1.09553c0,0.0956063 -0.0390591,0.182472 -0.10198,0.245394 -0.0629252,0.0629213 -0.149787,0.10198 -0.245394,0.10198l-3.93701e-006 0c-0.0956102,0 -0.182472,-0.0390591 -0.245394,-0.10198 -0.0629252,-0.0629213 -0.101984,-0.149783 -0.101984,-0.245394l0 -1.09553c0,-0.0956102 0.0390591,-0.182472 0.101984,-0.245394 0.0629213,-0.0629213 0.149783,-0.10198 0.245394,-0.10198z"/>
  <path class="fil7" d="M3.62415 1.54667l1.51209 0c-0.111768,0.0818307 -0.173736,0.204551 -0.169913,0.291165 0.000437008,0.010126 -0.00462992,0.0131732 -0.0118937,0.00793701 -0.00838976,-0.00605512 -0.0147756,-0.0151496 -0.0238937,-0.0246102 -0.0593228,-0.0615157 -0.120232,-0.124697 -0.29098,-0.13302 -0.218823,-0.0106654 -0.260551,0.0963937 -0.301173,0.200654 -0.00608661,0.0156299 -0.0121142,0.0310827 -0.0180039,0.0436063 -0.00546063,-0.0218898 -0.0136693,-0.0485276 -0.0269646,-0.0811575 -0.0257008,-0.0630906 -0.0736969,-0.104358 -0.130819,-0.128496 -0.0470118,-0.0198583 -0.0982441,-0.0272677 -0.147776,-0.0251299 -0.0469803,0.00202362 -0.0928031,0.0127677 -0.131717,0.0295709 -0.0588543,0.0254016 -0.104106,0.0657559 -0.118693,0.113067 -0.015189,0.0492677 -0.0144134,0.0955433 -0.013689,0.138697 0.000279528,0.0170906 0.000559055,0.033563 -0.000712598,0.0500512 -0.00200787,0.025937 -0.0182008,0.0441575 -0.107126,0.0406063 -0.0443228,-0.00177953 -0.0497835,-0.0478819 -0.0451378,-0.108035 0.00244882,-0.0317283 0.00851181,-0.0696339 0.0146811,-0.108295 0.0118976,-0.0744606 0.0209567,-0.210055 0.0117244,-0.30661z"/>
 </g>
</svg>
