<?xml version="1.0" encoding="UTF-8"?>
<!DOCTYPE svg PUBLIC "-//W3C//DTD SVG 1.1//EN" "http://www.w3.org/Graphics/SVG/1.1/DTD/svg11.dtd">
<!-- Creator: CorelDRAW -->
<svg xmlns="http://www.w3.org/2000/svg" xml:space="preserve" width="2048px" height="2048px" style="shape-rendering:geometricPrecision; text-rendering:geometricPrecision; image-rendering:optimizeQuality; fill-rule:evenodd; clip-rule:evenodd"
viewBox="0 0 2048 2048"
 xmlns:xlink="http://www.w3.org/1999/xlink">
 <defs>
  <style type="text/css">
   <![CDATA[
    .fil2 {fill:none}
    .fil1 {fill:#1976D2}
    .fil0 {fill:#1E88E5}
    .fil5 {fill:#AA9F8A;fill-rule:nonzero}
    .fil3 {fill:#D0C9B4;fill-rule:nonzero}
    .fil4 {fill:#FF3D00;fill-rule:nonzero}
   ]]>
  </style>
   <clipPath id="id0">
    <path d="M1024 -0.0011811c565.539,0 1024,458.462 1024,1024 0,565.539 -458.462,1024 -1024,1024 -565.539,0 -1024,-458.462 -1024,-1024 0,-565.539 458.462,-1024 1024,-1024z"/>
   </clipPath>
 </defs>
 <g id="Layer_x0020_1">
  <metadata id="CorelCorpID_0Corel-Layer"/>
  <path class="fil0" d="M1024 -0.0011811c565.539,0 1024,458.462 1024,1024 0,565.539 -458.462,1024 -1024,1024 -565.539,0 -1024,-458.462 -1024,-1024 0,-565.539 458.462,-1024 1024,-1024z"/>
  <g style="clip-path:url(#id0)">
   <g id="_451251464">
    <g>
     <polygon id="_3370656241" class="fil1" points="1578.56,1136.39 2714.45,2272.27 2715.7,2273.65 2716.79,2275.13 2717.72,2276.69 2718.48,2278.32 2719.08,2280.01 2719.52,2281.73 2719.78,2283.5 2719.88,2285.27 2719.81,2287.05 2719.57,2288.83 2719.15,2290.58 2718.56,2292.29 2717.79,2293.96 2716.85,2295.57 2715.72,2297.1 1579.84,1161.22 1580.96,1159.69 1581.91,1158.08 1582.68,1156.41 1583.27,1154.7 1583.68,1152.94 1583.93,1151.17 1584,1149.39 1583.9,1147.61 1583.64,1145.85 1583.2,1144.12 1582.6,1142.44 1581.84,1140.81 1580.91,1139.25 1579.82,1137.77 "/>
     <polygon id="_337065432" class="fil1" points="1579.84,1161.22 2715.72,2297.1 2714.45,2298.51 2713.07,2299.76 2711.6,2300.85 2710.04,2301.78 2708.41,2302.55 2706.72,2303.15 2704.99,2303.58 2703.23,2303.85 2701.45,2303.95 2699.67,2303.88 2697.9,2303.63 2696.15,2303.22 2694.43,2302.62 2692.77,2301.86 2691.16,2300.91 2689.63,2299.79 1553.75,1163.91 1555.28,1165.03 1556.88,1165.97 1558.55,1166.74 1560.27,1167.33 1562.02,1167.75 1563.79,1167.99 1565.57,1168.07 1567.35,1167.97 1569.11,1167.7 1570.84,1167.27 1572.53,1166.67 1574.16,1165.9 1575.72,1164.97 1577.19,1163.88 1578.57,1162.63 "/>
     <polygon id="_337066128" class="fil1" points="1553.75,1163.91 2689.63,2299.79 2622.94,2245.67 1487.06,1109.79 "/>
     <polygon id="_337066776" class="fil1" points="1487.06,1109.79 2622.94,2245.67 2622.94,2283.49 1487.06,1147.61 "/>
     <polygon id="_337067040" class="fil1" points="1487.87,1148.31 2623.75,2284.2 2624.48,2284.99 2625.12,2285.86 2625.66,2286.81 2626.1,2287.82 2626.42,2288.89 2626.62,2290 2626.68,2291.16 1490.8,1155.28 1490.74,1154.12 1490.54,1153 1490.22,1151.94 1489.78,1150.93 1489.24,1149.98 1488.6,1149.11 "/>
     <polygon id="_337066824" class="fil1" points="1490.8,1155.28 2626.68,2291.16 2626.67,2291.7 2626.63,2292.24 2626.55,2292.76 2626.45,2293.28 2626.33,2293.78 2626.18,2294.27 2626,2294.76 2625.8,2295.23 1489.92,1159.34 1490.12,1158.87 1490.3,1158.39 1490.45,1157.9 1490.57,1157.39 1490.67,1156.88 1490.74,1156.35 1490.79,1155.82 "/>
     <polygon id="_337066944" class="fil1" points="1493.4,1162.06 2629.28,2297.94 2630.03,2298.76 2630.73,2299.62 2631.38,2300.52 2631.97,2301.47 2632.5,2302.46 2632.97,2303.49 2633.37,2304.55 2633.7,2305.64 2633.97,2306.76 2634.16,2307.91 2634.28,2309.09 2634.32,2310.29 1498.44,1174.4 1498.4,1173.21 1498.28,1172.03 1498.09,1170.88 1497.82,1169.76 1497.49,1168.67 1497.08,1167.6 1496.62,1166.58 1496.09,1165.59 1495.5,1164.64 1494.85,1163.73 1494.15,1162.87 "/>
     <polygon id="_337066728" class="fil1" points="1498.44,1174.4 2634.32,2310.29 2634.25,2311.88 2634.04,2313.44 2633.7,2314.95 2633.23,2316.41 2632.65,2317.8 2631.95,2319.13 2631.14,2320.39 2630.24,2321.57 1494.36,1185.69 1495.26,1184.51 1496.07,1183.25 1496.76,1181.92 1497.35,1180.52 1497.82,1179.07 1498.16,1177.56 1498.37,1176 "/>
     <polygon id="_337067352" class="fil1" points="1494.36,1185.69 2630.24,2321.57 2630.62,2322.48 2630.99,2323.42 2631.36,2324.39 2631.71,2325.38 2632.06,2326.39 2632.39,2327.43 2632.72,2328.48 2633.03,2329.57 2633.34,2330.67 2633.63,2331.8 2633.92,2332.95 2634.19,2334.12 2634.45,2335.3 2634.7,2336.51 2634.93,2337.74 2635.16,2338.98 2635.37,2340.25 2635.57,2341.53 2635.76,2342.83 2635.94,2344.14 2636.1,2345.47 2636.25,2346.81 2636.38,2348.18 2636.51,2349.55 2636.62,2350.94 2636.71,2352.34 2636.79,2353.75 2636.86,2355.18 2636.91,2356.62 2636.95,2358.06 2636.97,2359.52 2636.98,2360.99 1501.1,1225.11 1501.09,1223.64 1501.07,1222.18 1501.03,1220.73 1500.98,1219.3 1500.91,1217.87 1500.83,1216.46 1500.74,1215.05 1500.63,1213.67 1500.5,1212.29 1500.37,1210.93 1500.22,1209.59 1500.06,1208.26 1499.88,1206.94 1499.69,1205.65 1499.49,1204.37 1499.28,1203.1 1499.05,1201.86 1498.82,1200.63 1498.57,1199.42 1498.31,1198.23 1498.03,1197.06 1497.75,1195.92 1497.46,1194.79 1497.15,1193.69 1496.84,1192.6 1496.51,1191.54 1496.18,1190.51 1495.83,1189.49 1495.48,1188.5 1495.11,1187.54 1494.74,1186.6 "/>
     <polygon id="_337066752" class="fil1" points="1501.1,1225.11 2636.98,2360.99 2636.97,2362.46 2636.95,2363.92 2636.91,2365.37 2636.86,2366.81 2636.79,2368.23 2636.71,2369.65 2636.62,2371.05 2636.51,2372.44 2636.38,2373.81 2636.25,2375.17 2636.1,2376.52 2635.94,2377.85 2635.76,2379.16 2635.57,2380.46 2635.37,2381.74 2635.16,2383 2634.93,2384.25 2634.7,2385.48 2634.45,2386.68 2634.19,2387.87 2633.92,2389.04 2633.63,2390.19 2633.34,2391.31 2633.03,2392.42 2632.72,2393.5 2632.39,2394.56 2632.06,2395.6 2631.71,2396.61 2631.36,2397.6 2630.99,2398.56 2630.62,2399.5 2630.24,2400.42 1494.36,1264.53 1494.74,1263.62 1495.11,1262.68 1495.48,1261.72 1495.83,1260.73 1496.18,1259.72 1496.51,1258.68 1496.84,1257.62 1497.15,1256.54 1497.46,1255.43 1497.75,1254.31 1498.03,1253.16 1498.31,1251.99 1498.57,1250.8 1498.82,1249.59 1499.05,1248.37 1499.28,1247.12 1499.49,1245.86 1499.69,1244.58 1499.88,1243.28 1500.06,1241.96 1500.22,1240.63 1500.37,1239.29 1500.5,1237.93 1500.63,1236.55 1500.74,1235.17 1500.83,1233.77 1500.91,1232.35 1500.98,1230.93 1501.03,1229.49 1501.07,1228.04 1501.09,1226.58 "/>
     <polygon id="_337066848" class="fil1" points="1494.36,1264.53 2630.24,2400.42 2631.14,2401.6 2631.95,2402.86 2632.65,2404.19 2633.23,2405.58 2633.7,2407.04 2634.04,2408.55 2634.25,2410.11 2634.32,2411.7 1498.44,1275.82 1498.37,1274.22 1498.16,1272.67 1497.82,1271.16 1497.35,1269.7 1496.76,1268.3 1496.07,1266.97 1495.26,1265.71 "/>
     <polygon id="_337067256" class="fil1" points="1498.44,1275.82 2634.32,2411.7 2634.28,2412.9 2634.16,2414.07 2633.97,2415.22 2633.7,2416.35 2633.37,2417.44 2632.97,2418.5 2632.5,2419.53 2631.97,2420.52 2631.38,2421.46 2630.73,2422.37 2630.03,2423.23 2629.28,2424.04 2628.48,2424.81 2627.63,2425.51 2626.74,2426.17 2625.8,2426.76 1489.92,1290.88 1490.85,1290.28 1491.75,1289.63 1492.6,1288.92 1493.4,1288.16 1494.15,1287.35 1494.85,1286.49 1495.5,1285.58 1496.09,1284.63 1496.62,1283.65 1497.08,1282.62 1497.49,1281.56 1497.82,1280.46 1498.09,1279.34 1498.28,1278.19 1498.4,1277.02 "/>
     <polygon id="_337067280" class="fil1" points="1489.92,1290.88 2625.8,2426.76 2626,2427.23 2626.18,2427.71 2626.33,2428.21 2626.45,2428.71 2626.55,2429.23 2626.63,2429.75 2626.67,2430.29 2626.68,2430.83 1490.8,1294.94 1490.79,1294.4 1490.74,1293.87 1490.67,1293.34 1490.57,1292.83 1490.45,1292.32 1490.3,1291.83 1490.12,1291.35 "/>
     <polygon id="_337066680" class="fil1" points="1490.8,1294.94 2626.68,2430.83 2626.62,2431.98 2626.42,2433.1 2626.1,2434.17 2625.66,2435.18 2625.12,2436.12 2624.48,2437 2623.75,2437.79 2622.94,2438.49 1487.06,1302.61 1487.87,1301.91 1488.6,1301.12 1489.24,1300.24 1489.78,1299.3 1490.22,1298.28 1490.54,1297.22 1490.74,1296.1 "/>
     <polygon id="_337068144" class="fil1" points="1487.06,1302.61 2622.94,2438.49 2622.94,2472.9 1487.06,1337.02 "/>
     <polygon id="_337067544" class="fil1" points="1487.06,1337.02 2622.94,2472.9 2622.94,2473.28 2622.93,2473.65 2622.93,2474.02 2622.92,2474.38 2622.91,2474.75 2622.9,2475.11 2622.88,2475.47 2622.87,2475.83 1486.99,1339.95 1487,1339.59 1487.02,1339.23 1487.03,1338.87 1487.04,1338.5 1487.05,1338.13 1487.05,1337.76 1487.06,1337.39 "/>
     <polygon id="_337067472" class="fil1" points="1553.75,1346.83 2689.63,2482.71 2690.83,2484.03 2691.89,2485.43 2692.79,2486.91 2693.53,2488.45 2694.1,2490.06 2694.5,2491.73 1558.62,1355.85 1558.22,1354.18 1557.65,1352.57 1556.91,1351.02 1556.01,1349.55 1554.95,1348.15 "/>
     <polygon id="_337067712" class="fil1" points="1558.62,1355.85 2694.5,2491.73 2685.41,2491.73 1549.53,1355.85 "/>
     <polygon id="_337067952" class="fil1" points="1549.53,1355.85 2685.41,2491.73 2685.76,2492.52 2686.07,2493.33 2686.34,2494.15 2686.56,2494.98 2686.73,2495.83 2686.86,2496.69 2686.94,2497.57 2686.96,2498.45 1551.08,1362.57 1551.05,1361.69 1550.98,1360.81 1550.85,1359.95 1550.68,1359.1 1550.46,1358.26 1550.19,1357.44 1549.88,1356.64 "/>
     <polygon id="_337067928" class="fil1" points="1551.08,1362.57 2686.96,2498.45 2686.96,2629.41 1551.08,1493.53 "/>
     <polygon id="_337067976" class="fil1" points="1551.08,1493.53 2686.96,2629.41 2686.84,2631.31 2686.49,2633.16 2685.92,2634.94 2685.15,2636.65 2684.17,2638.28 2683.02,2639.81 2681.69,2641.25 2680.2,2642.57 2678.56,2643.77 2676.78,2644.84 2674.87,2645.77 2672.85,2646.56 2670.73,2647.18 2668.52,2647.64 2666.23,2647.92 2663.86,2648.02 1527.98,1512.14 1530.34,1512.04 1532.64,1511.76 1534.85,1511.3 1536.97,1510.67 1538.99,1509.89 1540.9,1508.96 1542.68,1507.89 1544.31,1506.69 1545.81,1505.36 1547.14,1503.93 1548.29,1502.4 1549.26,1500.77 1550.04,1499.06 1550.61,1497.28 1550.96,1495.43 "/>
     <polygon id="_337068096" class="fil1" points="488.619,573.169 1624.5,1709.05 1599.88,1709.06 464,573.18 "/>
     <polygon id="_337068120" class="fil1" points="1366.09,1512.14 2501.97,2648.02 2501.34,2648.02 1365.46,1512.14 "/>
     <polygon id="_337067832" class="fil1" points="1365.46,1512.14 2501.34,2648.02 2500.11,2647.99 2498.9,2647.92 2497.71,2647.79 2496.53,2647.62 2495.38,2647.39 2494.25,2647.13 2493.15,2646.81 2492.07,2646.46 2491.02,2646.06 2490,2645.63 2489.01,2645.15 2488.06,2644.64 2487.14,2644.09 2486.25,2643.5 2485.4,2642.88 2484.59,2642.23 1348.71,1506.34 1349.52,1507 1350.37,1507.62 1351.26,1508.2 1352.18,1508.75 1353.13,1509.27 1354.12,1509.74 1355.14,1510.18 1356.19,1510.58 1357.27,1510.93 1358.37,1511.24 1359.5,1511.51 1360.65,1511.73 1361.83,1511.91 1363.02,1512.03 1364.23,1512.11 "/>
     <polygon id="_337068456" class="fil1" points="488.554,779.943 1624.44,1915.83 1623.62,1915.12 487.74,779.239 "/>
     <polygon id="_337068600" class="fil1" points="603.84,975.483 1739.72,2111.37 1604.51,2108.61 468.631,972.726 "/>
     <polygon id="_337068432" class="fil1" points="468.631,972.726 1604.51,2108.61 1604.29,2108.67 1603.79,2108.68 1603.11,2108.63 1602.33,2108.55 1601.53,2108.45 1600.8,2108.35 1600.22,2108.27 1599.88,2108.21 464,972.33 464.344,972.386 464.921,972.472 465.651,972.57 466.448,972.667 467.228,972.747 467.908,972.793 468.404,972.792 "/>
     <polygon id="_337068864" class="fil1" points="485.691,768.212 1621.57,1904.09 1620.64,1903.5 1619.74,1902.85 1618.9,1902.14 1618.09,1901.38 482.213,765.495 483.015,766.257 483.864,766.966 484.757,767.618 "/>
     <polygon id="_337068528" class="fil1" points="1348.71,1506.34 2484.59,2642.23 1739.72,2111.37 603.84,975.483 "/>
     <polygon id="_337068360" class="fil1" points="1527.98,1512.14 2663.86,2648.02 2501.97,2648.02 1366.09,1512.14 "/>
    </g>
    <path id="_451251488" class="fil1" d="M845.025 540.983l732.128 594.139c7.94883,6.463 9.15355,18.1477 2.68937,26.0953 -6.463,7.95001 -18.1477,9.15473 -26.0965,2.69055l-66.6898 -54.1217 0 37.8225c2.27599,1.75394 3.74646,4.53662 3.74646,7.6689 0,1.45512 -0.315355,2.83229 -0.883465,4.06654 5.09292,3.00709 8.51694,8.62442 8.51694,15.0591 0,4.30748 -1.53543,8.25001 -4.07953,11.2866 4.13268,9.5941 6.74174,23.6977 6.74174,39.4205 0,15.7252 -2.60906,29.8299 -6.74174,39.4229 2.5441,3.03898 4.07953,6.97914 4.07953,11.2878 0,6.43347 -3.42402,12.0508 -8.51694,15.0567 0.568111,1.23307 0.883465,2.61378 0.883465,4.06654 0,3.13229 -1.47047,5.91497 -3.74646,7.66772l0 34.4091c0,0.996851 -0.0236221,1.97599 -0.0696851,2.93032l48.7666 -0.0625985c11.6386,0 21.2646,6.93544 22.8626,15.9579l-9.08977 0c1.00276,2.08465 1.55433,4.35237 1.55433,6.72284l0 130.957c0,10.2768 -10.3406,18.6095 -23.0977,18.6095l-161.891 0 -0.634252 0c-6.59056,0 -12.5362,-2.22402 -16.7445,-5.79213l-744.872 -530.861 -135.209 -2.7567c-0.173622,0.274016 -4.10433,-0.298819 -4.63111,-0.39567l0 -134.193 0 -15.4902c1.66299,-0.307087 3.39331,-0.468898 5.17205,-0.468898l19.9051 0c-0.335433,-2.37756 -0.523229,-5.02796 -0.523229,-7.82245l0 -34.4126c-2.2748,-1.75158 -3.74764,-4.53307 -3.74764,-7.66418 0,-1.45394 0.318898,-2.83347 0.884646,-4.06654 -5.08937,-3.00709 -8.51694,-8.62442 -8.51694,-15.0567 0,-4.30866 1.53662,-8.24883 4.08071,-11.2878 -4.13386,-9.59528 -6.74292,-23.6988 -6.74292,-39.4229 0,-15.724 2.60906,-29.8264 6.74292,-39.4217 -2.5441,-3.03662 -4.08071,-6.97914 -4.08071,-11.2866 0,-6.43347 3.42756,-12.052 8.51694,-15.0579 -0.565748,-1.23543 -0.884646,-2.61378 -0.884646,-4.06654 0,-3.13229 1.47284,-5.91497 3.74764,-7.66654l0 -48.9508c0,-0.960237 0.022441,-1.90276 0.0649607,-2.8252l-24.6189 0.0106299 0 -37.0748 368.189 -0.168898 0 -0.0708662c4.97363,-0.00590552 9.49371,1.94173 12.8362,5.11772z"/>
   </g>
  </g>
  <path class="fil2" d="M1024 -0.0011811c565.539,0 1024,458.462 1024,1024 0,565.539 -458.462,1024 -1024,1024 -565.539,0 -1024,-458.462 -1024,-1024 0,-565.539 458.462,-1024 1024,-1024z"/>
  <path class="fil3" d="M469.171 822.179l411.241 0c12.7547,0 23.0953,8.33268 23.0953,18.6095l0 111.836 138.797 0c12.7559,0 23.0965,8.3315 23.0965,18.6095l0 111.835 138.796 0c12.7547,0 23.0953,8.3315 23.0953,18.6095l0 111.835 138.797 0c12.7559,0 23.0965,8.33268 23.0965,18.6106l0 111.835 138.795 0c12.7559,0 23.0977,8.33268 23.0977,18.6095l0 130.957c0,10.2768 -10.3417,18.6095 -23.0977,18.6095l-161.891 0 -0.634252 0c-6.59056,0 -12.5362,-2.22402 -16.7445,-5.79213l-744.872 -530.862 -135.21 -2.75551 0.542126 -18.5374 -0.583465 18.6036c-1.57441,-0.0318898 -3.10866,-0.188977 -4.58859,-0.461811l0 -149.684c1.66299,-0.307087 3.39449,-0.467717 5.17205,-0.467717z"/>
  <path class="fil4" d="M463.999 573.179l361.631 -0.16063 728.115 590.889c7.94883,6.46418 19.6335,5.25945 26.0965,-2.69055 6.46418,-7.94764 5.25945,-19.6323 -2.68937,-26.0953l-732.128 -594.14c-3.34252,-3.17599 -7.8626,-5.12244 -12.8362,-5.11654l0 0.0708662 -368.189 0.168898 0 37.0737z"/>
  <path class="fil4" d="M1487.06 1098.66c0,-10.278 -2.53583,-18.6095 -5.66339,-18.6095 -3.12638,0 -5.66221,8.3315 -5.66221,18.6095l0 48.9508c-2.27599,1.75158 -3.74646,4.53426 -3.74646,7.66536 0,1.45512 0.317717,2.83229 0.884646,4.06654 -5.09056,3.00709 -8.51812,8.62442 -8.51812,15.0591 0,4.30748 1.5378,8.25001 4.08071,11.2866 -4.13386,9.59528 -6.74292,23.6977 -6.74292,39.4205 0,15.7252 2.60906,29.8299 6.74292,39.4229 -2.54292,3.03898 -4.08071,6.98032 -4.08071,11.2878 0,6.43347 3.42756,12.0508 8.51812,15.0567 -0.56693,1.23425 -0.884646,2.61378 -0.884646,4.06654 0,3.13229 1.47047,5.91378 3.74646,7.66536l0 34.4114c0,10.278 2.53583,18.6095 5.66221,18.6095 3.12756,0 5.66339,-8.3315 5.66339,-18.6095l0 -34.4091c2.27599,-1.75276 3.74764,-4.53544 3.74764,-7.66772 0,-1.45276 -0.317717,-2.83229 -0.884646,-4.06654 5.09292,-3.00591 8.51694,-8.62323 8.51694,-15.0567 0,-4.30748 -1.53543,-8.24883 -4.07953,-11.2878 4.13268,-9.59292 6.74292,-23.6977 6.74292,-39.4229 0,-15.7228 -2.61024,-29.8252 -6.74292,-39.4205 2.5441,-3.03662 4.07953,-6.97914 4.07953,-11.2866 0,-6.43465 -3.42402,-12.052 -8.51694,-15.0591 0.56693,-1.23425 0.884646,-2.61142 0.884646,-4.06654 0,-3.13229 -1.47165,-5.91497 -3.74764,-7.6689l0 -48.9473z"/>
  <path class="fil4" d="M1312.59 973.628c0,-10.278 -2.53583,-18.6095 -5.66221,-18.6095 -3.12756,0 -5.66339,8.3315 -5.66339,18.6095l0 48.9508c-2.2748,1.75158 -3.74646,4.53426 -3.74646,7.66654 0,1.45394 0.317717,2.83229 0.884646,4.06654 -5.09174,3.00591 -8.51812,8.62442 -8.51812,15.0579 0,4.30748 1.5378,8.25001 4.08071,11.2866 -4.13268,9.59528 -6.74292,23.6988 -6.74292,39.4205 0,15.7252 2.61024,29.8299 6.74292,39.4229 -2.54292,3.04016 -4.08071,6.98032 -4.08071,11.2878 0,6.43347 3.42638,12.0508 8.51812,15.0567 -0.56693,1.23425 -0.884646,2.61378 -0.884646,4.06772 0,3.1311 1.47165,5.9126 3.74646,7.66536l0 34.4103c0,10.278 2.53583,9.95198 5.66339,9.95198 3.12638,0 5.66221,0.325985 5.66221,-9.95198l0 -34.4091c2.27599,-1.75158 3.74764,-4.53426 3.74764,-7.66654 0,-1.45394 -0.316536,-2.83347 -0.883465,-4.06772 5.09174,-3.00591 8.51575,-8.62323 8.51575,-15.0567 0,-4.30748 -1.53662,-8.24764 -4.07953,-11.2878 4.13268,-9.59292 6.74292,-23.6977 6.74292,-39.4229 0,-15.7217 -2.61024,-29.8252 -6.74292,-39.4205 2.54292,-3.03662 4.07953,-6.97914 4.07953,-11.2866 0,-6.43347 -3.42402,-12.052 -8.51575,-15.0579 0.56693,-1.23425 0.883465,-2.6126 0.883465,-4.06654 0,-3.13347 -1.47165,-5.91615 -3.74764,-7.6689l0 -48.9485z"/>
  <path class="fil4" d="M1148.3 835.512c0,-10.278 -2.53347,-18.6106 -5.66103,-18.6106 -3.12756,0 -5.66339,8.33268 -5.66339,18.6106l0 48.9485c-2.2748,1.75276 -3.74646,4.53426 -3.74646,7.66772 0,1.45276 0.316536,2.8311 0.884646,4.06536 -5.09174,3.00709 -8.51812,8.62442 -8.51812,15.0602 0,4.30748 1.5378,8.24883 4.08071,11.2854 -4.13268,9.59528 -6.74292,23.6977 -6.74292,39.4217 0,15.7252 2.61024,29.8288 6.74292,39.4229 -2.54292,3.0378 -4.08071,6.97796 -4.08071,11.2878 0,6.43347 3.42638,12.0496 8.51812,15.0567 -0.568111,1.23307 -0.884646,2.6126 -0.884646,4.06536 0,3.13229 1.47165,5.91378 3.74646,7.66536l0 34.4114c0,10.278 2.53583,18.6106 5.66339,18.6106 3.12756,0 5.66103,-8.33268 5.66103,-18.6106l0 -34.4079c2.27717,-1.75276 3.74882,-4.53544 3.74882,-7.6689 0,-1.45276 -0.316536,-2.83229 -0.884646,-4.06536 5.09174,-3.00709 8.51694,-8.62323 8.51694,-15.0567 0,-4.30985 -1.53662,-8.25001 -4.08071,-11.2878 4.13386,-9.5941 6.74292,-23.6977 6.74292,-39.4229 0,-15.724 -2.60906,-29.8264 -6.74292,-39.4217 2.5441,-3.03662 4.08071,-6.97796 4.08071,-11.2854 0,-6.43583 -3.4252,-12.0532 -8.51694,-15.0602 0.568111,-1.23425 0.884646,-2.6126 0.884646,-4.06536 0,-3.13347 -1.47165,-5.91733 -3.74882,-7.6689l0 -48.9473z"/>
  <path class="fil4" d="M991.286 709.025c0,-10.278 -2.53465,-18.6095 -5.66221,-18.6095 -3.12756,0 -5.66339,8.3315 -5.66339,18.6095l0 48.9496c-2.2748,1.75276 -3.74646,4.53426 -3.74646,7.66772 0,1.45276 0.317717,2.82992 0.884646,4.06536 -5.09056,3.00709 -8.51694,8.62442 -8.51694,15.0591 0,4.30748 1.53662,8.24883 4.07953,11.2866 -4.13268,9.5941 -6.74292,23.6977 -6.74292,39.4205 0,15.7252 2.61024,29.8288 6.74292,39.4229 -2.54292,3.03898 -4.07953,6.97914 -4.07953,11.2878 0,6.43347 3.42638,12.0508 8.51694,15.0567 -0.56693,1.23307 -0.884646,2.61378 -0.884646,4.06654 0,3.13229 1.47165,5.91378 3.74646,7.66536l0 34.4114c0,10.278 2.53583,18.6095 5.66339,18.6095 3.12756,0 5.66221,-8.3315 5.66221,-18.6095l0 -34.4091c2.27599,-1.75276 3.74764,-4.53426 3.74764,-7.66772 0,-1.45276 -0.316536,-2.83347 -0.884646,-4.06654 5.09292,-3.00591 8.51812,-8.62323 8.51812,-15.0567 0,-4.30866 -1.53662,-8.24883 -4.08189,-11.2878 4.13504,-9.5941 6.74292,-23.6977 6.74292,-39.4229 0,-15.7228 -2.60788,-29.8264 -6.74292,-39.4205 2.54528,-3.0378 4.08189,-6.97914 4.08189,-11.2866 0,-6.43465 -3.4252,-12.052 -8.51812,-15.0591 0.568111,-1.23543 0.884646,-2.6126 0.884646,-4.06536 0,-3.13347 -1.47165,-5.91733 -3.74764,-7.6689l0 -48.9485z"/>
  <path class="fil4" d="M829.907 575.995c0,-10.2768 -2.53583,-18.6095 -5.66339,-18.6095 -3.12638,0 -5.66221,8.33268 -5.66221,18.6095l0 48.9508c-2.27599,1.75158 -3.74764,4.53426 -3.74764,7.66654 0,1.45394 0.317717,2.8311 0.884646,4.06654 -5.09056,3.00591 -8.51694,8.62323 -8.51694,15.0579 0,4.30866 1.5378,8.25001 4.08071,11.2866 -4.13386,9.59528 -6.74292,23.6977 -6.74292,39.4217 0,15.724 2.60906,29.8288 6.74292,39.4229 -2.54292,3.0378 -4.08071,6.97914 -4.08071,11.2878 0,6.43229 3.42638,12.0496 8.51694,15.0567 -0.56693,1.23307 -0.884646,2.6126 -0.884646,4.06654 0,3.1311 1.47165,5.9126 3.74764,7.66418l0 34.4114c0,10.278 2.53583,18.6106 5.66221,18.6106 3.12756,0 5.66339,-8.33268 5.66339,-18.6106l0 -34.4091c2.27599,-1.75276 3.74646,-4.53426 3.74646,-7.66654 0,-1.45394 -0.316536,-2.83347 -0.883465,-4.06654 5.09292,-3.00709 8.51694,-8.62442 8.51694,-15.0567 0,-4.30866 -1.53662,-8.25001 -4.08071,-11.2878 4.13386,-9.5941 6.74292,-23.6988 6.74292,-39.4229 0,-15.724 -2.60906,-29.8264 -6.74292,-39.4217 2.5441,-3.03662 4.08071,-6.97796 4.08071,-11.2866 0,-6.43465 -3.42402,-12.052 -8.51694,-15.0579 0.56693,-1.23543 0.883465,-2.6126 0.883465,-4.06654 0,-3.13347 -1.47047,-5.91615 -3.74646,-7.6689l0 -48.9485z"/>
  <path class="fil4" d="M499.878 575.995c0,-10.2768 -2.53583,-18.6095 -5.66339,-18.6095 -3.12756,0 -5.66221,8.33268 -5.66221,18.6095l0 48.9508c-2.27599,1.75158 -3.74646,4.53426 -3.74646,7.66654 0,1.45394 0.316536,2.8311 0.883465,4.06654 -5.08937,3.00591 -8.51694,8.62323 -8.51694,15.0579 0,4.30866 1.53662,8.25001 4.08071,11.2866 -4.13386,9.59528 -6.74292,23.6977 -6.74292,39.4217 0,15.724 2.60906,29.8288 6.74292,39.4229 -2.5441,3.0378 -4.08071,6.97914 -4.08071,11.2878 0,6.43229 3.42756,12.0496 8.51694,15.0567 -0.56693,1.23307 -0.883465,2.6126 -0.883465,4.06654 0,3.1311 1.47047,5.9126 3.74646,7.66418l0 34.4114c0,10.278 2.53465,18.6106 5.66221,18.6106 3.12756,0 5.66339,-8.33268 5.66339,-18.6106l0 -34.4091c2.27599,-1.75276 3.74646,-4.53426 3.74646,-7.66654 0,-1.45394 -0.316536,-2.83347 -0.883465,-4.06654 5.09292,-3.00709 8.51694,-8.62442 8.51694,-15.0567 0,-4.30866 -1.53543,-8.25001 -4.08071,-11.2878 4.13386,-9.5941 6.74292,-23.6988 6.74292,-39.4229 0,-15.724 -2.60906,-29.8264 -6.74292,-39.4217 2.54528,-3.03662 4.08071,-6.97796 4.08071,-11.2866 0,-6.43465 -3.42402,-12.052 -8.51694,-15.0579 0.56693,-1.23543 0.883465,-2.6126 0.883465,-4.06654 0,-3.13347 -1.47047,-5.91615 -3.74646,-7.6689l0 -48.9485z"/>
  <path class="fil4" d="M656.895 575.995c0,-10.2768 -2.53465,-18.6095 -5.66221,-18.6095 -3.12756,0 -5.66339,8.33268 -5.66339,18.6095l0 48.9508c-2.2748,1.75158 -3.74646,4.53426 -3.74646,7.66654 0,1.45394 0.317717,2.8311 0.884646,4.06654 -5.09056,3.00591 -8.51694,8.62323 -8.51694,15.0579 0,4.30866 1.53662,8.25001 4.07953,11.2866 -4.13268,9.59528 -6.74292,23.6977 -6.74292,39.4217 0,15.724 2.61024,29.8288 6.74292,39.4229 -2.54292,3.0378 -4.07953,6.97914 -4.07953,11.2878 0,6.43229 3.42638,12.0496 8.51694,15.0567 -0.56693,1.23307 -0.884646,2.6126 -0.884646,4.06654 0,3.1311 1.47165,5.9126 3.74646,7.66418l0 34.4114c0,10.278 2.53583,18.6106 5.66339,18.6106 3.12756,0 5.66221,-8.33268 5.66221,-18.6106l0 -34.4091c2.27599,-1.75276 3.74764,-4.53426 3.74764,-7.66654 0,-1.45394 -0.316536,-2.83347 -0.883465,-4.06654 5.09174,-3.00709 8.51694,-8.62442 8.51694,-15.0567 0,-4.30866 -1.53662,-8.25001 -4.08071,-11.2878 4.13386,-9.5941 6.74292,-23.6988 6.74292,-39.4229 0,-15.724 -2.60906,-29.8264 -6.74292,-39.4217 2.5441,-3.03662 4.08071,-6.97796 4.08071,-11.2866 0,-6.43465 -3.4252,-12.052 -8.51694,-15.0579 0.56693,-1.23543 0.883465,-2.6126 0.883465,-4.06654 0,-3.13347 -1.47165,-5.91615 -3.74764,-7.6689l0 -48.9485z"/>
  <path class="fil5" d="M1212.18 1078.3c11.6374,0 21.2634,6.93662 22.8614,15.9591l-169.482 0 -0.0744095 -15.7701 146.695 -0.188977z"/>
  <path class="fil5" d="M1049.94 952.061c11.6374,0 21.2634,6.93662 22.8626,15.9579l-169.482 0 -0.0755906 -15.7689 146.695 -0.188977z"/>
  <path class="fil5" d="M469.171 822.178l424.913 0c11.6386,0 21.2646,6.93662 22.8626,15.9591l-452.947 0 0 -15.4902c1.66299,-0.307087 3.39331,-0.468898 5.17205,-0.468898z"/>
  <path class="fil5" d="M1374.42 1212.28c11.6374,0 21.2634,6.93662 22.8626,15.9591l-169.482 0 -0.0755906 -15.7701 146.695 -0.188977z"/>
  <path class="fil5" d="M1535.75 1339.89c11.6386,0 21.2646,6.93544 22.8626,15.9579l-169.482 0 -0.0755906 -15.7701 146.695 -0.187795z"/>
 </g>
</svg>
