<?xml version="1.0" encoding="UTF-8"?>
<!DOCTYPE svg PUBLIC "-//W3C//DTD SVG 1.1//EN" "http://www.w3.org/Graphics/SVG/1.1/DTD/svg11.dtd">
<!-- Creator: CorelDRAW -->
<svg xmlns="http://www.w3.org/2000/svg" xml:space="preserve" width="2048px" height="2048px" style="shape-rendering:geometricPrecision; text-rendering:geometricPrecision; image-rendering:optimizeQuality; fill-rule:evenodd; clip-rule:evenodd"
viewBox="0 0 2048 2048"
 xmlns:xlink="http://www.w3.org/1999/xlink">
 <defs>
  <style type="text/css">
   <![CDATA[
    .fil2 {fill:none}
    .fil5 {fill:#36C9F4}
    .fil4 {fill:#6FD1F4}
    .fil1 {fill:#7B1FA2}
    .fil0 {fill:#AB47BC}
    .fil3 {fill:#D3EDFA}
    .fil7 {fill:#6FD1F4;fill-rule:nonzero}
    .fil6 {fill:#94DDFE;fill-rule:nonzero}
   ]]>
  </style>
   <clipPath id="id0">
    <path d="M1024 0c565.539,0 1024,458.461 1024,1024 0,565.539 -458.461,1024 -1024,1024 -565.539,0 -1024,-458.461 -1024,-1024 0,-565.539 458.461,-1024 1024,-1024z"/>
   </clipPath>
 </defs>
 <g id="Layer_x0020_1">
  <metadata id="CorelCorpID_0Corel-Layer"/>
  <path class="fil0" d="M1024 0c565.539,0 1024,458.461 1024,1024 0,565.539 -458.461,1024 -1024,1024 -565.539,0 -1024,-458.461 -1024,-1024 0,-565.539 458.461,-1024 1024,-1024z"/>
  <g style="clip-path:url(#id0)">
   <g id="_474119936">
    <g>
     <polygon id="_3281036881" class="fil1" points="1044.64,581.585 2180.52,1717.47 2186.57,1724.96 2192.39,1732.38 2197.99,1739.72 2203.36,1746.98 2208.53,1754.16 2213.47,1761.26 2218.21,1768.28 2222.74,1775.23 2227.06,1782.09 2231.18,1788.87 2235.1,1795.58 2238.82,1802.2 2242.35,1808.75 2245.68,1815.21 2248.83,1821.59 2251.79,1827.89 2254.57,1834.11 2257.16,1840.25 2259.58,1846.3 2261.82,1852.28 2263.89,1858.17 2265.79,1863.98 2267.52,1869.71 2269.09,1875.35 2270.49,1880.91 2271.74,1886.39 2272.83,1891.79 2273.77,1897.1 2274.56,1902.33 2275.19,1907.47 2275.69,1912.53 2276.04,1917.51 1140.16,781.623 1139.81,776.649 1139.31,771.589 1138.67,766.445 1137.89,761.216 1136.95,755.905 1135.86,750.51 1134.61,745.032 1133.21,739.47 1131.64,733.825 1129.91,728.097 1128.01,722.287 1125.94,716.396 1123.7,710.421 1121.28,704.365 1118.68,698.227 1115.91,692.007 1112.95,685.707 1109.8,679.326 1106.47,672.863 1102.94,666.319 1099.22,659.696 1095.3,652.992 1091.18,646.208 1086.86,639.344 1082.33,632.4 1077.59,625.378 1072.65,618.276 1067.48,611.095 1062.11,603.834 1056.51,596.496 1050.69,589.08 "/>
     <polygon id="_328103904" class="fil1" points="1140.16,781.623 2276.04,1917.51 2276.14,1919.45 2276.22,1921.39 2276.28,1923.31 2276.31,1925.22 2276.33,1927.11 2276.32,1928.99 2276.29,1930.86 2276.25,1932.71 2276.18,1934.55 2276.09,1936.38 2275.98,1938.19 2275.85,1940 2275.7,1941.78 2275.53,1943.56 2275.35,1945.32 2275.14,1947.06 2274.91,1948.8 2274.67,1950.52 2274.4,1952.22 2274.12,1953.91 2273.82,1955.59 2273.5,1957.26 2273.16,1958.91 2272.8,1960.55 2272.43,1962.18 2272.04,1963.79 2271.63,1965.39 2271.2,1966.97 2270.76,1968.54 2270.3,1970.1 2269.83,1971.64 2269.33,1973.17 1133.45,837.288 1133.94,835.758 1134.42,834.214 1134.88,832.658 1135.32,831.087 1135.75,829.503 1136.16,827.905 1136.55,826.294 1136.92,824.669 1137.28,823.029 1137.62,821.377 1137.94,819.712 1138.24,818.032 1138.52,816.34 1138.78,814.633 1139.03,812.913 1139.26,811.181 1139.46,809.434 1139.65,807.673 1139.82,805.9 1139.97,804.113 1140.1,802.312 1140.21,800.497 1140.3,798.67 1140.36,796.83 1140.41,794.976 1140.44,793.108 1140.45,791.227 1140.43,789.334 1140.4,787.426 1140.34,785.505 1140.26,783.571 "/>
     <polygon id="_328104504" class="fil1" points="1133.45,837.288 2269.33,1973.17 2267.71,1977.81 2265.94,1982.31 2264.02,1986.69 2261.97,1990.94 2259.78,1995.06 2257.46,1999.04 2255.02,2002.9 2252.45,2006.63 2249.78,2010.22 2246.99,2013.69 2244.09,2017.02 2241.09,2020.23 2237.99,2023.3 2234.8,2026.24 2231.52,2029.05 2228.16,2031.72 2224.72,2034.27 2221.2,2036.68 2217.62,2038.96 2213.96,2041.11 2210.25,2043.12 2206.48,2045 2202.66,2046.75 2198.79,2048.37 2194.88,2049.85 2190.93,2051.2 2186.94,2052.41 2182.93,2053.49 2178.89,2054.44 2174.83,2055.25 2170.76,2055.93 2166.68,2056.47 1030.79,920.591 1034.88,920.048 1038.95,919.37 1043.01,918.558 1047.05,917.611 1051.06,916.53 1055.04,915.316 1058.99,913.967 1062.91,912.486 1066.78,910.87 1070.6,909.121 1074.37,907.24 1078.08,905.225 1081.73,903.077 1085.32,900.798 1088.84,898.385 1092.28,895.841 1095.64,893.163 1098.92,890.355 1102.11,887.415 1105.21,884.343 1108.21,881.14 1111.1,877.805 1113.89,874.341 1116.57,870.745 1119.14,867.018 1121.58,863.161 1123.9,859.173 1126.09,855.056 1128.14,850.808 1130.05,846.431 1131.83,841.923 "/>
     <polygon id="_328104480" class="fil1" points="1030.79,920.591 2166.68,2056.47 2165.34,2056.62 2164.01,2056.75 2162.67,2056.87 2161.34,2056.98 2160,2057.07 2158.67,2057.15 2157.33,2057.21 2156,2057.25 1020.12,921.372 1021.45,921.324 1022.79,921.263 1024.12,921.187 1025.46,921.096 1026.79,920.991 1028.13,920.872 1029.46,920.739 "/>
     <polygon id="_328104576" class="fil1" points="1020.12,921.372 2156,2057.25 2151.49,2057.31 2147,2057.2 2142.52,2056.93 2138.07,2056.49 2133.65,2055.89 2129.26,2055.13 2124.92,2054.2 2120.62,2053.11 2116.38,2051.86 2112.19,2050.43 2108.08,2048.85 2104.03,2047.1 2100.06,2045.18 2096.17,2043.1 2092.38,2040.85 2088.67,2038.44 2085.07,2035.86 2081.58,2033.11 2078.2,2030.2 2074.93,2027.12 939.052,891.235 942.315,894.315 945.698,897.229 949.192,899.976 952.794,902.555 956.495,904.97 960.292,907.217 964.178,909.3 968.148,911.215 972.194,912.967 976.312,914.552 980.495,915.973 984.738,917.228 989.035,918.32 993.379,919.247 997.765,920.01 1002.19,920.609 1006.64,921.044 1011.12,921.317 1015.61,921.426 "/>
     <polygon id="_328104648" class="fil1" points="1031.06,564.969 2166.94,1700.85 2180.52,1717.47 1044.64,581.585 "/>
     <polygon id="_328104552" class="fil1" points="1557.53,1232.61 2693.41,2368.5 2697.54,2373.2 2701.34,2377.95 2704.8,2382.77 2707.92,2387.64 2710.68,2392.56 2713.1,2397.54 2715.15,2402.56 2716.84,2407.64 2718.17,2412.77 2719.12,2417.94 2719.69,2423.16 2719.88,2428.42 1584,1292.54 1583.81,1287.28 1583.23,1282.06 1582.28,1276.89 1580.96,1271.76 1579.27,1266.68 1577.22,1261.65 1574.8,1256.68 1572.04,1251.75 1568.92,1246.88 1565.46,1242.07 1561.66,1237.31 "/>
     <polygon id="_328104672" class="fil1" points="1584,1292.54 2719.88,2428.42 2719.69,2433.68 2719.12,2438.9 2718.17,2444.08 2716.84,2449.2 2715.15,2454.28 2713.1,2459.31 2710.68,2464.29 2707.92,2469.21 2704.8,2474.08 2701.34,2478.89 2697.54,2483.65 2693.41,2488.35 2688.94,2492.99 2684.15,2497.56 2679.03,2502.08 2673.6,2506.53 2667.86,2510.91 2661.81,2515.22 2655.46,2519.47 2648.8,2523.65 2641.86,2527.75 2634.62,2531.78 2627.11,2535.74 2619.31,2539.62 2611.23,2543.42 2602.89,2547.14 2594.28,2550.79 2585.41,2554.35 2576.28,2557.82 2566.9,2561.22 2557.27,2564.52 2547.4,2567.74 1411.52,1431.86 1421.39,1428.64 1431.02,1425.33 1440.4,1421.94 1449.52,1418.46 1458.4,1414.91 1467.01,1411.26 1475.35,1407.54 1483.43,1403.74 1491.22,1399.86 1498.74,1395.9 1505.98,1391.87 1512.92,1387.76 1519.58,1383.59 1525.93,1379.34 1531.98,1375.03 1537.72,1370.64 1543.15,1366.19 1548.27,1361.68 1553.06,1357.1 1557.53,1352.47 1561.66,1347.77 1565.46,1343.01 1568.92,1338.2 1572.04,1333.33 1574.8,1328.4 1577.22,1323.43 1579.27,1318.4 1580.96,1313.32 1582.28,1308.19 1583.23,1303.02 1583.81,1297.8 "/>
     <polygon id="_328104408" class="fil1" points="1411.52,1431.86 2547.4,2567.74 2537.95,2570.67 2528.3,2573.52 2518.43,2576.31 2508.35,2579.01 2498.07,2581.65 2487.6,2584.2 2476.93,2586.68 2466.07,2589.07 2455.02,2591.39 2443.8,2593.62 2432.4,2595.76 2420.82,2597.82 2409.08,2599.8 2397.18,2601.68 2385.11,2603.48 2372.9,2605.18 2360.53,2606.79 2348.01,2608.31 2335.36,2609.73 2322.56,2611.06 2309.63,2612.28 2296.58,2613.41 2283.4,2614.44 2270.1,2615.36 2256.68,2616.18 2243.15,2616.9 2229.52,2617.51 2215.78,2618.01 2201.94,2618.4 2188.01,2618.69 2173.99,2618.86 2159.88,2618.91 1024,1483.03 1038.11,1482.97 1052.13,1482.8 1066.06,1482.52 1079.9,1482.13 1093.63,1481.63 1107.27,1481.02 1120.8,1480.3 1134.21,1479.48 1147.52,1478.56 1160.7,1477.53 1173.75,1476.4 1186.68,1475.17 1199.47,1473.85 1212.13,1472.43 1224.65,1470.91 1237.01,1469.3 1249.23,1467.6 1261.3,1465.8 1273.2,1463.92 1284.94,1461.94 1296.52,1459.88 1307.92,1457.74 1319.14,1455.5 1330.19,1453.19 1341.05,1450.8 1351.72,1448.32 1362.19,1445.76 1372.47,1443.13 1382.55,1440.42 1392.42,1437.64 1402.07,1434.78 "/>
     <polygon id="_328104840" class="fil1" points="1024,1483.03 2159.88,2618.91 2145.77,2618.86 2131.75,2618.69 2117.82,2618.4 2103.99,2618.01 2090.25,2617.51 2076.61,2616.9 2063.08,2616.18 2049.67,2615.36 2036.36,2614.44 2023.19,2613.41 2010.13,2612.28 1997.2,2611.06 1984.41,2609.73 1971.75,2608.31 1959.24,2606.79 1946.87,2605.18 1934.65,2603.48 1922.58,2601.68 1910.68,2599.8 1898.94,2597.82 1887.37,2595.76 1875.96,2593.62 1864.74,2591.39 1853.69,2589.07 1842.84,2586.68 1832.17,2584.2 1821.69,2581.65 1811.41,2579.01 1801.33,2576.31 1791.47,2573.52 1781.81,2570.67 1772.36,2567.74 636.484,1431.86 645.926,1434.78 655.584,1437.64 665.454,1440.42 675.53,1443.13 685.809,1445.76 696.284,1448.32 706.954,1450.8 717.813,1453.19 728.858,1455.5 740.083,1457.74 751.484,1459.88 763.058,1461.94 774.799,1463.92 786.703,1465.8 798.767,1467.6 810.986,1469.3 823.354,1470.91 835.869,1472.43 848.526,1473.85 861.32,1475.17 874.247,1476.4 887.304,1477.53 900.484,1478.56 913.785,1479.48 927.202,1480.3 940.73,1481.02 954.366,1481.63 968.104,1482.13 981.941,1482.52 995.872,1482.8 1009.89,1482.97 "/>
     <polygon id="_328105032" class="fil1" points="636.484,1431.86 1772.36,2567.74 1762.49,2564.52 1752.87,2561.22 1743.49,2557.82 1734.36,2554.35 1725.48,2550.79 1716.87,2547.14 1708.53,2543.42 1700.46,2539.62 1692.66,2535.74 1685.14,2531.78 1677.9,2527.75 1670.96,2523.65 1664.31,2519.47 1657.95,2515.22 1651.9,2510.91 1646.16,2506.53 1640.73,2502.08 504.847,1366.19 510.278,1370.64 516.02,1375.03 522.071,1379.34 528.424,1383.59 535.076,1387.76 542.021,1391.87 549.257,1395.9 556.776,1399.86 564.574,1403.74 572.648,1407.54 580.993,1411.26 589.603,1414.91 598.476,1418.46 607.604,1421.94 616.985,1425.33 626.613,1428.64 "/>
    </g>
    <path id="_474119648" class="fil1" d="M1044.64 581.585c65.6918,80.3623 92.5135,147.419 95.517,200.039 1.18937,20.8429 -1.35945,39.4205 -6.70867,55.6642 -16.5165,50.1437 -59.054,78.2292 -102.656,83.3032 -3.5563,0.413386 -7.12087,0.67441 -10.6784,0.780709 -48.1181,1.44449 -95.1331,-24.8811 -108.833,-80.2146 -13.8307,-55.8615 8.49804,-142.433 106.011,-259.642l13.7646 -16.5461 13.5827 16.6158zm-20.6421 520.466c150.913,0 287.954,19.5567 387.516,51.1737 106.569,33.8422 172.485,82.9548 172.485,139.316 0,56.3611 -65.9162,105.474 -172.485,139.316 -99.5623,31.617 -236.603,51.1737 -387.516,51.1737 -150.913,0 -287.954,-19.5567 -387.516,-51.1737 -106.569,-33.8422 -172.485,-82.9548 -172.485,-139.316 0,-56.3611 65.9162,-105.474 172.485,-139.316 99.5623,-31.617 236.603,-51.1737 387.516,-51.1737z"/>
   </g>
  </g>
  <path class="fil2" d="M1024 0c565.539,0 1024,458.461 1024,1024 0,565.539 -458.461,1024 -1024,1024 -565.539,0 -1024,-458.461 -1024,-1024 0,-565.539 458.461,-1024 1024,-1024z"/>
  <path class="fil3" d="M1024 1102.05c150.913,0 287.954,19.5567 387.516,51.1737 106.569,33.8422 172.485,82.9548 172.485,139.316 0,56.3611 -65.9162,105.474 -172.485,139.316 -99.5623,31.617 -236.603,51.1737 -387.516,51.1737 -150.913,0 -287.954,-19.5567 -387.516,-51.1737 -106.569,-33.8422 -172.485,-82.9548 -172.485,-139.316 0,-56.3611 65.9162,-105.474 172.485,-139.316 99.5623,-31.617 236.603,-51.1737 387.516,-51.1737z"/>
  <path class="fil4" d="M1024 1174.92c111.07,0 212.074,11.041 285.584,28.8921 82.8107,20.1083 134.03,51.2741 134.03,88.7257 0,37.4516 -51.2197,68.6174 -134.03,88.7257 -73.5095,17.8512 -174.514,28.8921 -285.584,28.8921 -111.07,0 -212.074,-11.041 -285.584,-28.8921 -82.8107,-20.1083 -134.03,-51.2741 -134.03,-88.7257 0,-37.4516 51.2197,-68.6174 134.03,-88.7257 73.5095,-17.8512 174.514,-28.8921 285.584,-28.8921z"/>
  <path class="fil5" d="M1232.56 1256.76c-53.0504,-12.8823 -126.764,-20.8512 -208.563,-20.8512 -81.7985,0 -155.512,7.9689 -208.563,20.8512 -45.9178,11.1508 -74.3174,23.961 -74.3174,35.7839 0,11.824 28.3996,24.6331 74.3174,35.7839 53.0504,12.8823 126.764,20.8512 208.563,20.8512 81.7985,0 155.512,-7.9689 208.563,-20.8512 45.9178,-11.1508 74.3174,-23.9599 74.3174,-35.7839 0,-11.8228 -28.3996,-24.6331 -74.3174,-35.7839z"/>
  <path class="fil6" d="M911.284 841.158c-13.8307,-55.8626 8.49804,-142.434 106.01,-259.643l13.7658 -16.5461 13.5827 16.6158c91.7139,112.197 107.663,198.457 88.8072,255.702 -17.863,54.2363 -66.1654,82.6713 -113.333,84.0851 -48.1181,1.44449 -95.132,-24.8811 -108.833,-80.2134z"/>
  <path class="fil7" d="M1140.15 781.623c1.18819,20.8417 -1.35473,39.4217 -6.70394,55.6642 -16.5165,50.1437 -59.054,78.2292 -102.656,83.2997 -31.8591,-13.9819 -53.3729,-40.552 -53.3729,-71.0327 0,-45.0178 46.9205,-81.5115 104.802,-81.5115 21.4193,0 41.3351,5.00197 57.9308,13.5803z"/>
 </g>
</svg>
